<svg id="Group_5418" data-name="Group 5418" xmlns="http://www.w3.org/2000/svg" xmlns:xlink="http://www.w3.org/1999/xlink" width="110.731" height="35.635" viewBox="0 0 110.731 35.635">
  <defs>
    <clipPath id="clip-path">
      <rect id="Rectangle_2427" data-name="Rectangle 2427" width="110.731" height="35.635" fill="none"/>
    </clipPath>
  </defs>
  <g id="Group_5417" data-name="Group 5417" clip-path="url(#clip-path)">
    <path id="Path_14701" data-name="Path 14701" d="M.028,2.378C-.018,3.41.006,4.445.006,5.479q0,5.133,0,10.265c0,.427.008.732.582.8.851.1,1.687.326,2.531.489,2.117.411,4.234.817,6.411,1.236V0C6.439.6,3.45,1.175.469,1.787a.786.786,0,0,0-.441.591" transform="translate(0)" fill="#fff"/>
    <path id="Path_14702" data-name="Path 14702" d="M77.371,2.123c-1.425-.255-2.84-.566-4.262-.842C71.623.993,70.133.72,68.593.431V18.5a.649.649,0,0,0,.182.033c2.941-.56,5.883-1.114,8.816-1.71.176-.036.4-.409.4-.626.024-4.457.014-8.913.023-13.37,0-.469-.207-.623-.648-.7m-.6,8.663c-.774.892-1.515,1.817-2.342,2.657a2.159,2.159,0,0,0-.524,1.9c.069.691-.2.959-.829.858-.826-2.225.79-3.49,2.111-5.067l-2.216.113v-2.6H69.528l1.389-1.685c.047-.057.094-.115.144-.169a8.638,8.638,0,0,0,1.661-1.86,7.58,7.58,0,0,0,.3-2.368c.607-.111.837.075.9.749A3.324,3.324,0,0,1,72.652,6.6a7.771,7.771,0,0,0-.961,1.045l2.2.214v2.349H77.2c-.19.26-.3.427-.423.574" transform="translate(-58.458 -0.367)" fill="#fff"/>
    <path id="Path_14703" data-name="Path 14703" d="M168.91,14.62a4.532,4.532,0,0,0,1.3-4.1A3.4,3.4,0,0,0,166.859,7.5c-1.5.057-3,.023-4.5.007-.647-.007-.945.256-.944.918q.013,7.052,0,14.1c0,.688.3.966.991.954,1.452-.027,2.9-.012,4.357-.008a3.694,3.694,0,0,0,2.6-1.06c1.45-1.348,1.609-3.073,1.379-4.9a4.411,4.411,0,0,0-1.825-2.9m-5.769-5.433c1.395,0,2.766-.079,4.117.047.418.039.917.57,1.142,1a2.824,2.824,0,0,1-.014,2.427,1.642,1.642,0,0,1-1.647,1.12c-1.174-.007-2.348,0-3.6,0Zm5.685,11.37a1.883,1.883,0,0,1-1.57,1.2c-1.342.063-2.69.018-4.118.018V15.517a34.907,34.907,0,0,1,4.175.042c.968.118,1.46,1.043,1.758,1.922a3.943,3.943,0,0,1-.246,3.077" transform="translate(-137.561 -6.394)" fill="#fff"/>
    <path id="Path_14704" data-name="Path 14704" d="M319.711,22.215c-.158-.359-.372-.693-.563-1.037L316.892,17.1c.459-.184.855-.313,1.224-.5,1.541-.765,1.955-2.163,2.08-3.73.24-3-1.253-5.466-4.629-5.353-1.353.045-2.708,0-4.063.009-.952,0-1.086.133-1.087,1.058q-.005,6.944-.005,13.888c0,.589.115,1.014.836,1.021s.867-.405.863-1c-.007-1.157,0-2.315,0-3.472,0-2.012,0-1.988,2.006-2.006a1.182,1.182,0,0,1,1.2.738c.938,1.757,1.934,3.483,2.888,5.232a.843.843,0,0,0,1.177.427c.521-.232.544-.725.335-1.2m-7.031-6.837c-.2-.008-.542-.285-.546-.443-.038-1.889-.025-3.779-.025-5.767,1.508,0,2.906-.051,4.3.019a2.054,2.054,0,0,1,1.759,1.3,4.264,4.264,0,0,1,.128,3.368A2.057,2.057,0,0,1,316,15.4c-1.106,0-2.214.021-3.318-.022" transform="translate(-264.545 -6.405)" fill="#fff"/>
    <path id="Path_14705" data-name="Path 14705" d="M532.166,19.539a4.781,4.781,0,0,0,5.064,3.526,4.727,4.727,0,0,0,4.394-4.646c.057-3.468.02-6.938.012-10.407,0-.587-.19-1.09-.888-1.137-.547-.036-.84.366-.843,1.136-.006,1.7,0,3.4,0,5.093,0,1.722.013,3.445,0,5.167a3.26,3.26,0,0,1-2.178,2.957,2.805,2.805,0,0,1-3.386-1.265,4.386,4.386,0,0,1-.6-2.073c-.062-3.148-.027-6.3-.027-9.448,0-.2,0-.394,0-.59-.013-.559-.218-.992-.848-.973s-.822.449-.819,1.01c0,.074,0,.148,0,.221q0,5.167.005,10.334a4.452,4.452,0,0,0,.121,1.094" transform="translate(-453.426 -5.857)" fill="#fff"/>
    <path id="Path_14706" data-name="Path 14706" d="M398.467,14.449a9.754,9.754,0,0,0,.283-2.471,4.112,4.112,0,0,0-4.364-4.414c-1.427-.015-2.855-.007-4.283,0-.983,0-1.078.1-1.08,1.12q-.006,3.4,0,6.794,0,3.434,0,6.867c0,.56-.1,1.2.793,1.182.679-.012.819-.191.82-1.148q0-2.178,0-4.357c0-.949,0-.948.986-.954,1.206-.007,2.414.03,3.617-.036a3.434,3.434,0,0,0,3.227-2.582M396.6,14.42a1.891,1.891,0,0,1-1.817,1.021c-.563-.034-1.129-.007-1.694-.007-.614,0-1.228-.015-1.842,0-.428.013-.621-.129-.616-.591q.027-2.541,0-5.083c0-.451.158-.6.6-.595,1.055.021,2.112,0,3.167.007a2.35,2.35,0,0,1,2.553,1.967,4.224,4.224,0,0,1-.353,3.276" transform="translate(-331.54 -6.439)" fill="#fff"/>
    <path id="Path_14707" data-name="Path 14707" d="M243.526,8.467c0-1.026-.259-1.46-.846-1.44-.558.02-.785.423-.785,1.428,0,3.3,0,6.594,0,9.891a3.3,3.3,0,0,1-2.1,3.013,3.171,3.171,0,0,1-4.131-3.1c-.015-3.346-.007-6.692,0-10.039,0-.584-.07-1.16-.793-1.173s-.833.555-.84,1.139c0,.074,0,.148,0,.221,0,3.272-.006,6.545.007,9.817a5.929,5.929,0,0,0,.15,1.459,4.625,4.625,0,0,0,4.934,3.472,4.563,4.563,0,0,0,4.411-4.648c.02-1.673,0-3.346,0-5.019s0-3.346,0-5.019" transform="translate(-199.441 -5.988)" fill="#fff"/>
    <path id="Path_14708" data-name="Path 14708" d="M696.383,23.19c1.944.011,3.888-.006,5.831.009.608,0,1.015-.177,1.04-.847.023-.617-.286-.885-1.073-.892-1.427-.012-2.854,0-4.281-.006-.258,0-.516-.025-.769-.038v-6.1c1.244,0,2.444.012,3.644,0,.7-.01.988-.369.9-1.036-.077-.558-.437-.706-.944-.7-1.2.012-2.391,0-3.6,0V8.83h.832c1.427,0,2.854-.018,4.281.008.625.011,1.016-.185,1.009-.856s-.41-.867-1.023-.863c-1.944.014-3.888,0-5.831.008-.839,0-1.032.2-1.032,1.056q0,6.975,0,13.951c0,.892.146,1.051,1.018,1.056" transform="translate(-592.617 -6.067)" fill="#fff"/>
    <path id="Path_14709" data-name="Path 14709" d="M466.758,14.841c-1.071-.7-2.131-1.414-3.194-2.126a20.8,20.8,0,0,1-1.763-1.208,1.922,1.922,0,0,1,.368-3.374,5.327,5.327,0,0,1,2.488-.357,7.8,7.8,0,0,1,2.067.728c.532.2,1.059.244,1.345-.329a.886.886,0,0,0-.533-1.269,8.7,8.7,0,0,0-3.971-.966,4.326,4.326,0,0,0-4.189,3.026c-.484,1.8.118,3.118,2.06,4.441,1.463,1,2.954,1.954,4.4,2.97,1.587,1.112,1.479,2.758-.22,3.7a4.291,4.291,0,0,1-3.01.389c-.744-.149-1.461-.423-2.2-.6-.516-.121-1.034-.027-1.206.548a.828.828,0,0,0,.713,1.141c1.265.283,2.528.578,3.761.861a18.6,18.6,0,0,0,2.354-.6,3.778,3.778,0,0,0,2.642-3.177,3.868,3.868,0,0,0-1.915-3.808" transform="translate(-391.306 -5.056)" fill="#fff"/>
    <path id="Path_14710" data-name="Path 14710" d="M634.345,7.16q-3.91-.009-7.821,0c-.6,0-.84.377-.825.909a.732.732,0,0,0,.843.8c.737-.02,1.48.046,2.212-.018.716-.063.921.232.842.881a6.16,6.16,0,0,0,0,.737q0,5.866,0,11.732c0,.53.041.983.741,1.03.731.049.955-.355.986-.977.012-.245.012-.492.012-.737q0-5.829,0-11.658V8.86c1.074,0,2.029-.013,2.983,0a.731.731,0,0,0,.848-.789c.017-.538-.22-.914-.815-.916" transform="translate(-533.247 -6.098)" fill="#fff"/>
    <path id="Path_14711" data-name="Path 14711" d="M609.343,7.13c-.7-.059-.984.228-.986,1.03q-.007,4.211,0,8.422c0,1.9-.007,3.792,0,5.689,0,.737.286.965,1,.921.646-.04.73-.466.729-.977q0-3.509,0-7.018,0-3.546,0-7.092c0-.53-.141-.922-.752-.974" transform="translate(-518.465 -6.07)" fill="#fff"/>
    <path id="Path_14712" data-name="Path 14712" d="M316.472,176.3a3.953,3.953,0,0,1,1.976.446l.388-1.318a5.7,5.7,0,0,0-2.364-.484,4.765,4.765,0,0,0-5.038,4.98,4.455,4.455,0,0,0,4.67,4.786,6.282,6.282,0,0,0,2.693-.543l-.291-1.279a4.845,4.845,0,0,1-2.093.465,3.535,3.535,0,0,1,.058-7.053" transform="translate(-265.417 -149.097)" fill="#fff"/>
    <path id="Path_14713" data-name="Path 14713" d="M373.791,174.816c-2.732,0-4.4,2.228-4.4,5.057A4.355,4.355,0,0,0,374,184.6a7.6,7.6,0,0,0,3.12-.581l-.291-1.22a6.166,6.166,0,0,1-2.6.484,3,3,0,0,1-3.217-3.255h6.588a6.438,6.438,0,0,0,.058-.794c0-1.724-.814-4.418-3.875-4.418m2.228,3.992h-4.98a2.826,2.826,0,0,1,2.616-2.771c1.918,0,2.383,1.686,2.364,2.771" transform="translate(-314.812 -148.986)" fill="#fff"/>
    <path id="Path_14714" data-name="Path 14714" d="M440.783,176.871h-.077l-.058-1.841h-1.492c.058.872.078,1.821.078,2.926v6.452h1.686v-5a4.817,4.817,0,0,1,.077-.794,2.392,2.392,0,0,1,2.286-2.19,2.557,2.557,0,0,1,.581.058v-1.608a1.841,1.841,0,0,0-.484-.058,2.814,2.814,0,0,0-2.6,2.054" transform="translate(-374.267 -148.986)" fill="#fff"/>
    <path id="Path_14715" data-name="Path 14715" d="M481.616,158.031l-1.666.446v2.248H478.5v1.3h1.453v5.115a3.473,3.473,0,0,0,.659,2.441,2.362,2.362,0,0,0,1.841.717,4.172,4.172,0,0,0,1.511-.233l-.077-1.279a3.789,3.789,0,0,1-.988.116c-.949,0-1.279-.659-1.279-1.821v-5.057h2.441v-1.3h-2.441Z" transform="translate(-407.795 -134.681)" fill="#fff"/>
    <rect id="Rectangle_2426" data-name="Rectangle 2426" width="1.705" height="9.378" transform="translate(78.18 26.044)" fill="#fff"/>
    <path id="Path_14716" data-name="Path 14716" d="M528.735,151.212a1.039,1.039,0,0,0-1.066,1.066,1.056,1.056,0,1,0,1.066-1.066" transform="translate(-449.702 -128.869)" fill="#fff"/>
    <path id="Path_14717" data-name="Path 14717" d="M555.063,149.306c0-1.492.523-2.751,2.325-2.751a3.585,3.585,0,0,1,1.976.543l.484-1.3a4.693,4.693,0,0,0-2.383-.62,3.759,3.759,0,0,0-4.088,4.088v.5H552.06v1.3h1.318v8.08h1.686v-8.08h3.759v8.08h1.686v-9.378h-5.445Z" transform="translate(-470.489 -123.728)" fill="#fff"/>
    <path id="Path_14718" data-name="Path 14718" d="M628.188,174.816c-2.732,0-4.4,2.228-4.4,5.057A4.355,4.355,0,0,0,628.4,184.6a7.6,7.6,0,0,0,3.12-.581l-.291-1.22a6.166,6.166,0,0,1-2.6.484,3,3,0,0,1-3.217-3.255H632a6.436,6.436,0,0,0,.058-.794c0-1.724-.814-4.418-3.875-4.418m2.228,3.992h-4.98a2.826,2.826,0,0,1,2.616-2.771c1.918,0,2.383,1.686,2.364,2.771" transform="translate(-531.619 -148.986)" fill="#fff"/>
    <path id="Path_14719" data-name="Path 14719" d="M698.262,157.957V146.622h-1.705v5.6h-.039a3.135,3.135,0,0,0-2.829-1.434c-2.286,0-4.224,1.918-4.2,5.038,0,2.848,1.744,4.766,4.011,4.766a3.468,3.468,0,0,0,3.2-1.841h.039l.077,1.628h1.531c-.058-.639-.077-1.589-.077-2.422m-1.705-1.511a2.963,2.963,0,0,1-.077.736,2.563,2.563,0,0,1-2.5,2.034c-1.841,0-2.771-1.569-2.771-3.468,0-2.073,1.046-3.623,2.809-3.623a2.508,2.508,0,0,1,2.461,1.977,3.008,3.008,0,0,1,.077.717Z" transform="translate(-587.608 -124.957)" fill="#fff"/>
  </g>
</svg>
