<svg xmlns="http://www.w3.org/2000/svg" width="123" height="124" viewBox="0 0 123 124">
  <g id="Group_5456" data-name="Group 5456" transform="translate(-0.341 0.172)">
    <ellipse id="Ellipse_2" data-name="Ellipse 2" cx="61.5" cy="62" rx="61.5" ry="62" transform="translate(0.341 -0.172)" fill="#fff"/>
    <circle id="Ellipse_3" data-name="Ellipse 3" cx="48.5" cy="48.5" r="48.5" transform="translate(13.341 13.828)" fill="#70726b"/>
    <g id="construction-bulldozer-svgrepo-com" transform="translate(36.733 43.157)">
      <path id="Path_14611" data-name="Path 14611" d="M48.773,328.584H22.106a4.08,4.08,0,1,0,0,8.159H48.773a4.08,4.08,0,1,0,0-8.159Zm0,7.279H22.106a3.2,3.2,0,1,1,0-6.4H48.773a3.2,3.2,0,1,1,0,6.4Z" transform="translate(-16.16 -301.241)" fill="#fff"/>
      <path id="Path_14612" data-name="Path 14612" d="M32.6,310.283H5.987A5.987,5.987,0,0,0,0,316.257a.443.443,0,0,0,.013.107,5.982,5.982,0,0,0,5.974,5.868H32.6a5.974,5.974,0,1,0,0-11.949Zm0,11.069H5.987a5.1,5.1,0,0,1-5.094-5.094.439.439,0,0,0-.011-.1,5.107,5.107,0,0,1,5.106-5H32.6a5.094,5.094,0,1,1,0,10.189Z" transform="translate(0 -284.835)" fill="#fff"/>
      <path id="Path_14613" data-name="Path 14613" d="M37.578,344.059a2.477,2.477,0,1,0,2.477,2.477A2.48,2.48,0,0,0,37.578,344.059Zm0,4.075a1.6,1.6,0,1,1,1.6-1.6A1.6,1.6,0,0,1,37.578,348.133Z" transform="translate(-31.467 -315.113)" fill="#fff"/>
      <path id="Path_14614" data-name="Path 14614" d="M122.249,344.059a2.477,2.477,0,1,0,2.477,2.477A2.48,2.48,0,0,0,122.249,344.059Zm0,4.075a1.6,1.6,0,1,1,1.6-1.6A1.6,1.6,0,0,1,122.249,348.133Z" transform="translate(-107.37 -315.113)" fill="#fff"/>
      <path id="Path_14615" data-name="Path 14615" d="M206.92,344.058a2.477,2.477,0,1,0,2.477,2.477A2.48,2.48,0,0,0,206.92,344.058Zm0,4.075a1.6,1.6,0,1,1,1.6-1.6A1.6,1.6,0,0,1,206.92,348.133Z" transform="translate(-183.274 -315.112)" fill="#fff"/>
      <path id="Path_14616" data-name="Path 14616" d="M291.592,344.058a2.477,2.477,0,1,0,2.477,2.477A2.48,2.48,0,0,0,291.592,344.058Zm0,4.075a1.6,1.6,0,1,1,1.6-1.6A1.6,1.6,0,0,1,291.592,348.133Z" transform="translate(-259.179 -315.112)" fill="#fff"/>
      <path id="Path_14617" data-name="Path 14617" d="M67.294,86.388a3.885,3.885,0,0,0-1.744-3.9l-3.283-15.9s0-.009,0-.014c-.015-.071-.033-.141-.055-.211a2.617,2.617,0,0,0-3.023-1.809L45.006,67.492a3.012,3.012,0,0,0-2.392-1.357H29.4A2.064,2.064,0,0,0,27.343,68.2V71.27H21.106a1.27,1.27,0,0,0-1.268,1.268v13.9c0,.01,0,.02,0,.03A2.469,2.469,0,0,0,22.3,88.764H49.728a2.456,2.456,0,0,0,2.293-3.342l0-.007L47.9,74.8l7.214-2.955,4.929,12.044a3.887,3.887,0,0,0,1.639,5.338l-2.111,6.68a.078.078,0,0,1-.1.051l-.929-.293a.44.44,0,0,0-.573.42v1.538a.44.44,0,0,0,.3.418,7.816,7.816,0,0,0,9.018-11.656ZM28.223,68.2A1.183,1.183,0,0,1,29.4,67.015H42.614a2.109,2.109,0,0,1,1.8,1.231l6.105,15.732a2.447,2.447,0,0,0-.789-.131h-1.49L43.006,70.367a2.219,2.219,0,0,0-1.947-1.333H31.867A1.57,1.57,0,0,0,30.3,70.6v.668H28.223V68.2Zm2.956,3.1v-.7a.689.689,0,0,1,.688-.688h9.192a1.342,1.342,0,0,1,1.127.771l4.142,10.672H34.7a.44.44,0,0,0,0,.88H46.669l.625,1.61H32.177V72.539A1.27,1.27,0,0,0,31.179,71.3ZM49.728,87.883H22.3a1.587,1.587,0,0,1-1.577-1.459V85.7a.437.437,0,0,0,.144.026H28.11a.44.44,0,0,0,0-.88H20.862a.437.437,0,0,0-.144.026v-7.5h3.112a.44.44,0,1,0,0-.88H20.718V74.61h7.116a.44.44,0,0,0,0-.88H20.718V72.539a.389.389,0,0,1,.388-.388h9.8a.389.389,0,0,1,.388.388V84.288a.44.44,0,0,0,.44.44H49.728a1.578,1.578,0,1,1,0,3.156Zm-4.346-19.57L59.36,65.421a1.746,1.746,0,0,1,1,3.327L47.582,73.983Zm10.547,3.2L60.7,69.562a2.622,2.622,0,0,0,1.109-.857l2.753,13.33a3.881,3.881,0,0,0-3.9,1.029Zm4.512,14.252a3.011,3.011,0,1,1,3.011,3.011A3.015,3.015,0,0,1,60.441,85.767Zm.282,11.788a6.939,6.939,0,0,1-1.869-.255v-.612l.356.112a.958.958,0,0,0,1.2-.625l2.1-6.634a3.888,3.888,0,0,0,4.419-2.025,6.935,6.935,0,0,1-6.2,10.038Z" transform="translate(-17.784 -64.507)" fill="#fff"/>
      <path id="Path_14618" data-name="Path 14618" d="M427.647,254.665a1.752,1.752,0,1,0-1.751,1.752A1.754,1.754,0,0,0,427.647,254.665Zm-2.623,0a.872.872,0,1,1,.872.872A.873.873,0,0,1,425.024,254.665Z" transform="translate(-380.227 -233.405)" fill="#fff"/>
    </g>
  </g>
</svg>
