<svg xmlns="http://www.w3.org/2000/svg" width="629" height="629" viewBox="0 0 629 629">
  <g id="Group_5359" data-name="Group 5359" transform="translate(0.399 0.435)">
    <path id="Subtraction_2" data-name="Subtraction 2" d="M314.5,629a319.564,319.564,0,0,1-32.156-1.624A314.035,314.035,0,0,1,1.624,346.655a319.25,319.25,0,0,1,0-64.311A314.032,314.032,0,0,1,282.345,1.624a319.207,319.207,0,0,1,64.311,0,314.033,314.033,0,0,1,280.72,280.72A319.673,319.673,0,0,1,629,314.5,314.927,314.927,0,0,1,441.331,602.378c-.146-.58-.313-1.165-.5-1.74A312.6,312.6,0,0,0,620.856,377.524c2.088-10.217,3.683-20.663,4.738-31.049a317.483,317.483,0,0,0,0-63.95c-1.056-10.385-2.65-20.832-4.738-31.049A311.018,311.018,0,0,0,573.8,139.663,313.619,313.619,0,0,0,436.22,26.366a311.15,311.15,0,0,0-58.7-18.222c-10.215-2.089-20.661-3.683-31.049-4.738a317.429,317.429,0,0,0-63.95,0A312.253,312.253,0,0,0,3.406,282.525a317.387,317.387,0,0,0,0,63.95A312.254,312.254,0,0,0,282.525,625.594a317.435,317.435,0,0,0,63.95,0,313.5,313.5,0,0,0,31.049-4.74c3.258-.667,6.559-1.4,9.809-2.174.2.558.417,1.125.657,1.687a314.613,314.613,0,0,1-36.1,6.433A319.031,319.031,0,0,1,314.5,629Z" transform="translate(-0.399 -0.435)" fill="rgba(24,215,85,0.27)"/>
    <g id="Group_5358" data-name="Group 5358" transform="translate(402.504 598.826)">
      <circle id="Ellipse_4" data-name="Ellipse 4" cx="12.5" cy="12.5" r="12.5" transform="translate(0.097 -0.26)" fill="#fff"/>
      <ellipse id="Ellipse_5" data-name="Ellipse 5" cx="9.5" cy="10" rx="9.5" ry="10" transform="translate(3.097 2.74)" fill="#649a1b"/>
    </g>
  </g>
</svg>
