<svg xmlns="http://www.w3.org/2000/svg" width="555.999" height="556.001" viewBox="0 0 555.999 556.001">
  <g id="Group_5360" data-name="Group 5360" transform="translate(0.153 0.189)">
    <path id="Subtraction_1" data-name="Subtraction 1" d="M278,556a280.058,280.058,0,0,1-56.027-5.648,276.479,276.479,0,0,1-99.406-41.83A278.814,278.814,0,0,1,21.847,386.211a276.6,276.6,0,0,1-16.2-52.184,280.419,280.419,0,0,1,2.7-123.9,276.527,276.527,0,0,1,23.683-61.79c.473.367.967.725,1.47,1.063-3.624,6.874-6.989,13.971-10,21.092A274.819,274.819,0,0,0,7.405,222.333a278.921,278.921,0,0,0,0,111.335,274.7,274.7,0,0,0,41.559,98.761A277.014,277.014,0,0,0,170.489,532.5,274.75,274.75,0,0,0,222.333,548.6a278.913,278.913,0,0,0,111.334,0,274.7,274.7,0,0,0,98.762-41.559A277.013,277.013,0,0,0,532.5,385.512a274.868,274.868,0,0,0,16.093-51.844,278.918,278.918,0,0,0,0-111.335,274.677,274.677,0,0,0-41.558-98.761A277.029,277.029,0,0,0,385.511,23.5,274.818,274.818,0,0,0,333.667,7.405a278.916,278.916,0,0,0-111.334,0,274.657,274.657,0,0,0-98.762,41.559A277.643,277.643,0,0,0,61.978,105.87c-.5-.323-1.029-.634-1.561-.924a279.088,279.088,0,0,1,94.848-76.458A276.486,276.486,0,0,1,213.992,7.4,280.544,280.544,0,0,1,334.027,5.648a276.478,276.478,0,0,1,99.406,41.83A278.811,278.811,0,0,1,534.153,169.79a276.59,276.59,0,0,1,16.2,52.183,280.713,280.713,0,0,1,0,112.054,276.482,276.482,0,0,1-41.83,99.406A278.81,278.81,0,0,1,386.21,534.154a276.608,276.608,0,0,1-52.183,16.2A280.056,280.056,0,0,1,278,556Z" transform="translate(-0.153 -0.189)" fill="rgba(255,255,255,0.4)"/>
    <g id="Group_5357" data-name="Group 5357" transform="translate(34.962 112.056)">
      <circle id="Ellipse_4" data-name="Ellipse 4" cx="13.5" cy="13.5" r="13.5" transform="translate(-0.115 -0.245)" fill="#fff"/>
      <circle id="Ellipse_5" data-name="Ellipse 5" cx="10.5" cy="10.5" r="10.5" transform="translate(2.885 2.755)" fill="#ffa01f"/>
    </g>
  </g>
</svg>
