<svg xmlns="http://www.w3.org/2000/svg" xmlns:xlink="http://www.w3.org/1999/xlink" width="74" height="74" viewBox="0 0 74 74">
  <defs>
    <clipPath id="clip-path">
      <rect id="Rectangle_2422" data-name="Rectangle 2422" width="35" height="35" transform="translate(0.034 0.035)" fill="#e32f2f"/>
    </clipPath>
  </defs>
  <g id="Group_5464" data-name="Group 5464" transform="translate(-524 -3421)">
    <g id="Ellipse_3" data-name="Ellipse 3" transform="translate(524 3421)" fill="none" stroke="#fff" stroke-linecap="round" stroke-width="2" stroke-dasharray="5 9">
      <circle cx="37" cy="37" r="37" stroke="none"/>
      <circle cx="37" cy="37" r="36" fill="none"/>
    </g>
    <g id="alert-triangle-svgrepo-com" transform="translate(543.965 3440.965)" clip-path="url(#clip-path)">
      <path id="Path_14691" data-name="Path 14691" d="M14.254,2.782a3.678,3.678,0,0,1,6.3,0L34.316,26.093a3.573,3.573,0,0,1-3.152,5.362H3.648A3.573,3.573,0,0,1,.5,26.093Zm.336,7a1.45,1.45,0,0,1,1.448-1.531h2.735a1.45,1.45,0,0,1,1.448,1.531l-.564,10.152a1.45,1.45,0,0,1-1.448,1.37H16.6a1.45,1.45,0,0,1-1.448-1.37Zm5.716,15.872a2.9,2.9,0,1,1-2.9-2.9A2.9,2.9,0,0,1,20.306,25.654Z" transform="translate(-0.003 0.45)" fill="#e32f2f" fill-rule="evenodd"/>
    </g>
  </g>
</svg>
