<svg id="Group_5422" data-name="Group 5422" xmlns="http://www.w3.org/2000/svg" xmlns:xlink="http://www.w3.org/1999/xlink" width="122.518" height="43.247" viewBox="0 0 122.518 43.247">
  <defs>
    <clipPath id="clip-path">
      <rect id="Rectangle_2433" data-name="Rectangle 2433" width="122.518" height="43.247" fill="#fff"/>
    </clipPath>
  </defs>
  <g id="Group_5421" data-name="Group 5421" clip-path="url(#clip-path)">
    <path id="Path_14749" data-name="Path 14749" d="M34.077,5.321V21.152c-2.264,0-4.46.063-6.649-.027a1.946,1.946,0,0,1-1.682-2.235,2.027,2.027,0,0,1,1.975-2.02,16,16,0,0,1,2-.015V9.595c-1.861-.414-3.821-.7-5.679-1.3-2.086-.675-4.073-1.651-6.118-2.456-.413-.163-1.012-.357-1.329-.183A35.25,35.25,0,0,1,4.7,9.47a1.215,1.215,0,0,0-.283.143v7.177c1.674.19,3.949-.428,3.981,2.231C8.433,21.75,6.076,21,4.407,21.3A10.175,10.175,0,0,0,7.7,30.1c2.954,2.695,6.157,5.118,9.4,7.784,3.727-3.672,8.612-5.915,11.429-10.486a1.347,1.347,0,0,1,.941-.541c1.255-.063,2.515-.025,3.969-.025a10.913,10.913,0,0,1-2.939,5.351c-2.685,2.525-5.559,4.851-8.375,7.235-1.376,1.164-2.822,2.245-4.192,3.415a1.122,1.122,0,0,1-1.729.009c-3.473-2.871-7.03-5.642-10.485-8.535A14.987,14.987,0,0,1,0,22.166c.051-5.049.011-10.1.011-15.15V5.323C6.3,5.239,12.018,3.784,17.063,0c5,3.766,10.747,5.244,17.014,5.322" transform="translate(0 0.001)" fill="#fff"/>
    <path id="Path_14750" data-name="Path 14750" d="M47.281,50.163a5.842,5.842,0,0,1,5.535,3.989,5.728,5.728,0,0,1-2.147,6.58A2.355,2.355,0,0,0,49.387,63.1a2.22,2.22,0,0,1-2.228,2.62c-1.3-.042-2.119-.99-2.093-2.612A2.217,2.217,0,0,0,43.9,60.819a5.708,5.708,0,0,1-2.269-6.651,5.771,5.771,0,0,1,5.65-4.006m2.148,5.91a2.2,2.2,0,0,0-2.19-2.224,2.158,2.158,0,0,0-2.207,2.058,2.286,2.286,0,0,0,2.109,2.352,2.331,2.331,0,0,0,2.288-2.186" transform="translate(-30.152 -36.589)" fill="#fff"/>
    <path id="Path_14751" data-name="Path 14751" d="M153.832,89.026l1.735-2.518a16.272,16.272,0,0,0,3.172,1.187c.583.094,1.275-.493,1.919-.773a6.472,6.472,0,0,0-1.237-1.375c-.834-.516-1.805-.8-2.675-1.27-2.044-1.095-2.792-2.471-2.511-4.471a4.329,4.329,0,0,1,3.627-3.534,7,7,0,0,1,6.129,1.447l-1.434,2.762a10.581,10.581,0,0,0-2.672-1.009c-.664-.063-1.385.474-2.081.744a6.407,6.407,0,0,0,1.285,1.461c.876.531,1.9.8,2.82,1.276a3.86,3.86,0,0,1,2.3,4.188,4.059,4.059,0,0,1-3.148,3.644,7.489,7.489,0,0,1-7.229-1.759" transform="translate(-112.205 -55.5)" fill="#fff"/>
    <path id="Path_14752" data-name="Path 14752" d="M411.493,105.881l1.019-2.388c.332.067.62.15.914.179,1.563.155,2.342-.911,1.718-2.362-1.174-2.726-2.362-5.446-3.542-8.169-.139-.321-.258-.651-.455-1.153,1.2,0,2.271-.059,3.324.037a1.3,1.3,0,0,1,.852.766c.588,1.648,1.091,3.326,1.708,5.257.486-1.774.959-3.3,1.311-4.863.2-.892.546-1.334,1.533-1.22a23.028,23.028,0,0,0,2.534.019,7.741,7.741,0,0,1-.212.932c-1.325,3.585-2.609,7.188-4.01,10.744a4.39,4.39,0,0,1-6.694,2.221" transform="translate(-299.89 -67.067)" fill="#fff"/>
    <path id="Path_14753" data-name="Path 14753" d="M359.141,30.589l.193,1.093a4.38,4.38,0,0,1,4.007-1.375,3.066,3.066,0,0,1,2.878,3.058c.1,2.464.025,4.936.025,7.5h-3.49c0-1.71.024-3.441-.01-5.171-.017-.889.327-2.029-1.083-2.228a2.052,2.052,0,0,0-2.2,2.079c-.127,1.735-.031,3.486-.031,5.322h-3.514V30.589Z" transform="translate(-259.604 -22.056)" fill="#fff"/>
    <path id="Path_14754" data-name="Path 14754" d="M293.178,102.724c-1.242-.283-2.641.609-3.688-.922a4.156,4.156,0,0,1-3.773,1.106A2.872,2.872,0,0,1,283,100.183c-.136-2.066-.077-4.145-.1-6.218-.005-.486,0-.972,0-1.548h3.529c0,1.873-.007,3.75,0,5.627,0,.71-.119,1.7.87,1.654a2.722,2.722,0,0,0,1.92-1.084,5.386,5.386,0,0,0,.5-2.459c.075-1.207.019-2.421.019-3.729h3.435Z" transform="translate(-206.349 -67.409)" fill="#fff"/>
    <path id="Path_14755" data-name="Path 14755" d="M200.8,97.16c.654,2.117,2.059,2.336,5.161.879l1.244,2.284a6.721,6.721,0,0,1-8.067.485,5.66,5.66,0,0,1-1.584-6.828,5.39,5.39,0,0,1,6.234-2.847,4.71,4.71,0,0,1,3.521,4.966c-.011.836-.3,1.1-1.108,1.075-1.785-.045-3.571-.014-5.4-.014m2.817-2.1.226-.349c-.466-.346-.944-.985-1.394-.965-.587.025-1.152.571-1.727.893l.207.422Z" transform="translate(-143.716 -66.353)" fill="#fff"/>
    <path id="Path_14756" data-name="Path 14756" d="M246.5,36.416h-6.276c.452,2.093,1.956,2.356,5.146.9l1.19,2.2c-1.835,2-5.813,2.267-8.044.562a5.736,5.736,0,0,1-1.283-7.425,5.524,5.524,0,0,1,6.555-2.064c2.121.78,3.145,2.9,2.713,5.826m-3.545-2.143.265-.4c-.5-.32-1-.905-1.484-.89-.545.018-1.072.578-1.607.9l.209.389Z" transform="translate(-172.436 -22.056)" fill="#fff"/>
    <path id="Path_14757" data-name="Path 14757" d="M162.558,37.373l1.195,2.2a6.6,6.6,0,0,1-7.531.888,5.576,5.576,0,0,1-2.413-6.33,5.278,5.278,0,0,1,6.559-3.669c2.586.621,3.91,2.97,3.267,5.974h-6.278c.609,2.11,1.853,2.317,5.2.939M157.32,33.89l.2.4H160.2l.2-.351c-.482-.331-.969-.931-1.445-.922-.549.01-1.089.557-1.633.871" transform="translate(-112.04 -22.091)" fill="#fff"/>
    <path id="Path_14758" data-name="Path 14758" d="M288.16,40.968c-1.23-.385-2.551.656-3.4-.879a3.966,3.966,0,0,1-3.972.864,3.212,3.212,0,0,1-2.288-2.881,2.689,2.689,0,0,1,1.929-2.921,40.143,40.143,0,0,1,4.143-.968c-.449-1.431-1.1-1.479-4.26-.243l-1.131-2.2c1.836-1.758,5.572-2.164,7.407-.63a4.465,4.465,0,0,1,1.5,2.7c.216,2.274.07,4.583.07,7.153m-3.549-4.4c-1.321-.237-2.546.207-2.5.971a1.227,1.227,0,0,0,.756.855c.872.221,1.6-.6,1.739-1.825" transform="translate(-203.133 -22.002)" fill="#fff"/>
    <path id="Path_14759" data-name="Path 14759" d="M198.908,16.495h3.4V27.822h5.88v3.018h-9.276Z" transform="translate(-145.083 -12.031)" fill="#fff"/>
    <path id="Path_14760" data-name="Path 14760" d="M249.635,97.936c1.62,2.516,1.357,3.178-1.437,3.893a6.136,6.136,0,0,1-6.63-2.17,5.607,5.607,0,0,1,.19-6.445,6.159,6.159,0,0,1,8.837-.485l-1.371,2.193c-1.586-.838-3.192-1.613-4.579.177a2.649,2.649,0,0,0,.288,3.243c1.047,1.08,2.461.964,4.7-.407" transform="translate(-175.523 -66.443)" fill="#fff"/>
    <path id="Path_14761" data-name="Path 14761" d="M388.613,92.067V94.79c-3.243.933-5.775-.914-5.792-4.166-.005-.987,0-1.973,0-3.055l-1.3-.294v-2.5c2.593.083.891-2.115,1.723-3.1h3.01c.042.927.084,1.847.132,2.9l2.029.208V87.3l-1.93.211c-.579,3.43-.3,4.033,2.128,4.56" transform="translate(-278.282 -59.577)" fill="#fff"/>
    <path id="Path_14762" data-name="Path 14762" d="M329.19,32.745c-2.771.249-3.469,1.021-3.478,3.783,0,1.112,0,2.224,0,3.415h-3.428v-10.3h3.173l.112,1.37,3.622-2.053Z" transform="translate(-235.073 -21.126)" fill="#fff"/>
    <path id="Path_14763" data-name="Path 14763" d="M336.386,93.441c-2.655.182-3.433,1.01-3.439,3.557,0,1.161,0,2.321,0,3.559h-3.413v-10.2h3.134c.061.445.126.918.181,1.315l3.537-2.091Z" transform="translate(-240.362 -65.338)" fill="#fff"/>
    <rect id="Rectangle_2432" data-name="Rectangle 2432" width="3.3" height="10.257" transform="translate(98.064 25)" fill="#fff"/>
    <path id="Path_14764" data-name="Path 14764" d="M365.4,77.656a1.605,1.605,0,0,1-1.777,1.751,1.511,1.511,0,0,1-1.6-1.629c.025-1.1.694-1.592,1.774-1.559a1.455,1.455,0,0,1,1.605,1.437" transform="translate(-264.06 -55.593)" fill="#fff"/>
  </g>
</svg>
