<svg xmlns="http://www.w3.org/2000/svg" xmlns:xlink="http://www.w3.org/1999/xlink" width="124" height="124" viewBox="0 0 124 124">
  <defs>
    <clipPath id="clip-path">
      <rect id="Rectangle_2386" data-name="Rectangle 2386" width="50.949" height="38.533" fill="#fff"/>
    </clipPath>
  </defs>
  <g id="Group_5459" data-name="Group 5459" transform="translate(0.036 -0.015)">
    <circle id="Ellipse_2" data-name="Ellipse 2" cx="62" cy="62" r="62" transform="translate(-0.036 0.015)" fill="#fff"/>
    <circle id="Ellipse_3" data-name="Ellipse 3" cx="48.5" cy="48.5" r="48.5" transform="translate(12.964 13.015)" fill="#ffa01f"/>
    <g id="Group_5348" data-name="Group 5348" transform="translate(36.38 46.745)">
      <g id="Group_5347" data-name="Group 5347" clip-path="url(#clip-path)">
        <path id="Path_14586" data-name="Path 14586" d="M50.336.013Q40.829.01,31.323,0c-.479,0-.593.208-.665.609a47.605,47.605,0,0,1-7.833,18.908A55.5,55.5,0,0,1,5.512,35.494C3.721,36.569,1.853,37.516,0,38.533c.6-.167,1.2-.315,1.786-.5a58.766,58.766,0,0,0,14.848-7.15A46.67,46.67,0,0,0,30.88,16.52a23.726,23.726,0,0,0,2.439-5.086l-2.331-1.093,9.132-6.392,2.33,11.307-2.073-.846A72.745,72.745,0,0,1,24.529,31.188c2.1-.971,4.143-2.016,6.159-3.115A43.428,43.428,0,0,0,41.454,19.7,33.964,33.964,0,0,0,50.21,4.018c.3-1.287.49-2.6.74-3.953-.312-.027-.463-.052-.614-.052" transform="translate(0 0)" fill="#fff"/>
        <path id="Path_14587" data-name="Path 14587" d="M84.909,69.541a3.933,3.933,0,0,0,.468-.316c1.512-1.449,3.034-2.887,4.511-4.371a1.635,1.635,0,0,0,.4-1.05c.027-4.482.017-8.964.017-13.447V48.028H85.756c-.883,0-.886,0-.886.859q0,9.935,0,19.869c0,.232.021.465.037.785" transform="translate(-73.504 -41.596)" fill="#fff"/>
        <path id="Path_14588" data-name="Path 14588" d="M21.07,121.481v.778a4.236,4.236,0,0,0,.5-.216c1.563-1.009,3.131-2.013,4.676-3.05a.85.85,0,0,0,.264-.625c.014-5.217.006-10.435.019-15.652,0-.5-.122-.711-.673-.695-1.314.038-2.633.052-3.946-.006-.7-.031-.852.2-.849.868.025,6.2.015,12.4.015,18.6" transform="translate(-18.236 -88.351)" fill="#fff"/>
        <path id="Path_14589" data-name="Path 14589" d="M147.944,18.324v.718a4.251,4.251,0,0,0,.426-.476c1.343-2.258,2.716-4.5,4-6.791a6.452,6.452,0,0,0,.988-2.658c.128-2.829.045-5.666.057-8.5,0-.429-.148-.59-.586-.584-1.383.02-2.768.035-4.151,0-.593-.017-.748.166-.746.755.022,5.847.013,11.694.013,17.541" transform="translate(-128.119 -0.023)" fill="#fff"/>
      </g>
    </g>
  </g>
</svg>
