<svg xmlns="http://www.w3.org/2000/svg" xmlns:xlink="http://www.w3.org/1999/xlink" width="74" height="74" viewBox="0 0 74 74">
  <defs>
    <clipPath id="clip-path">
      <rect id="Rectangle_2423" data-name="Rectangle 2423" width="36.479" height="34.012" fill="#e2302f"/>
    </clipPath>
  </defs>
  <g id="Group_5465" data-name="Group 5465" transform="translate(-1044 -3421)">
    <g id="Ellipse_58" data-name="Ellipse 58" transform="translate(1044 3421)" fill="none" stroke="#fff" stroke-linecap="round" stroke-width="2" stroke-dasharray="5 9">
      <circle cx="37" cy="37" r="37" stroke="none"/>
      <circle cx="37" cy="37" r="36" fill="none"/>
    </g>
    <g id="Group_5445" data-name="Group 5445" transform="translate(1062.319 3439.827)">
      <g id="Group_5410" data-name="Group 5410" clip-path="url(#clip-path)">
        <path id="Path_14692" data-name="Path 14692" d="M40.55,74.164c2.89,0,5.781.022,8.671-.012.945-.011,1.323.29,1.228,1.289q-.458,4.794-.8,9.6c-.061.872-.4,1.215-1.264,1.212q-7.845-.025-15.691,0c-.881,0-1.236-.4-1.3-1.224-.246-3.2-.491-6.4-.767-9.6-.083-.967.291-1.294,1.249-1.28,2.89.043,5.78.015,8.671.015m.01,8.992a2.787,2.787,0,0,0-.023-5.572,2.908,2.908,0,0,0-2.766,2.738,2.842,2.842,0,0,0,2.79,2.834" transform="translate(-22.188 -53.732)" fill="#e2302f"/>
        <path id="Path_14693" data-name="Path 14693" d="M49.273,14.428c-5.051-3.882-17.422-3.919-21.447.034.172-1.311.045-2.383.462-3.165a53.487,53.487,0,0,1,4.928-8.361c3.155-3.958,7.355-3.861,10.674-.027a24.353,24.353,0,0,1,4.982,8.8,19.469,19.469,0,0,1,.4,2.724" transform="translate(-20.164 0)" fill="#e2302f"/>
        <path id="Path_14694" data-name="Path 14694" d="M8.643,76.981c-2.26,0-4,.03-5.734-.009A2.9,2.9,0,0,1,0,73.987a5.913,5.913,0,0,1,.4-2.139,47.51,47.51,0,0,1,8.088-12.53l5.164,3.6c-1.538,0-2.661-.008-3.785,0-1.629.014-1.895.237-1.8,1.818.154,2.65.416,5.293.565,7.943.078,1.388.014,2.784.014,4.3" transform="translate(0 -42.985)" fill="#e2302f"/>
        <path id="Path_14695" data-name="Path 14695" d="M88.846,77.218c-.007-1.61-.089-3.138,0-4.656.143-2.518.411-5.029.592-7.546.1-1.448-.258-1.828-1.688-1.852-1.175-.02-2.35,0-3.96,0l5.046-3.513a28.4,28.4,0,0,1,2.1,2.635c1.941,3.1,3.852,6.224,5.665,9.4a5.938,5.938,0,0,1,.6,2.639,2.846,2.846,0,0,1-2.73,2.88c-1.739.062-3.481.014-5.618.014" transform="translate(-60.716 -43.224)" fill="#e2302f"/>
        <path id="Path_14696" data-name="Path 14696" d="M33.984,45.363c.527,3.269,1.746,5.961,4.975,7.238a3.5,3.5,0,0,1-3.6-.569c-1.393-.952-2.806-1.88-4.148-2.9-1.262-.96-1.167-1.919.186-2.773a5.342,5.342,0,0,1,.983-.473c.5-.187,1.017-.333,1.608-.523" transform="translate(-21.968 -32.872)" fill="#e2302f"/>
        <path id="Path_14697" data-name="Path 14697" d="M76.574,45.565a29.4,29.4,0,0,1,2.918,1.366c.915.558,1.115,1.382.151,2.09a61.982,61.982,0,0,1-5.424,3.729,5.332,5.332,0,0,1-2.691.148c3.156-1.343,4.409-3.981,5.046-7.332" transform="translate(-51.833 -33.019)" fill="#e2302f"/>
      </g>
    </g>
  </g>
</svg>
