<svg xmlns="http://www.w3.org/2000/svg" width="99" height="99" viewBox="0 0 99 99">
  <g id="Group_5457" data-name="Group 5457" transform="translate(0.466 0.081)">
    <circle id="Ellipse_2" data-name="Ellipse 2" cx="49.5" cy="49.5" r="49.5" transform="translate(-0.466 -0.081)" fill="#fff"/>
    <circle id="Ellipse_3" data-name="Ellipse 3" cx="38.5" cy="38.5" r="38.5" transform="translate(10.534 10.919)" fill="#69b528"/>
    <g id="health-svgrepo-com" transform="translate(33.169 36.906)">
      <path id="Path_14590" data-name="Path 14590" d="M20.445,9.973H17.472m0,0H14.5m2.972,0V7m0,2.973v2.972" transform="translate(5.193 0.062)" fill="none" stroke="#fff" stroke-linecap="round" stroke-width="1.5"/>
      <path id="Path_14591" data-name="Path 14591" d="M12.712,27.708l.7-.865ZM17.227,7.191l-.814.761a1.115,1.115,0,0,0,1.628,0Zm4.516,20.517.7.865Zm-4.516,2.41v0ZM3.333,19.242a1.115,1.115,0,1,0,1.908-1.154Zm5.775,3.7a1.115,1.115,0,1,0-1.6,1.555ZM3.479,12.755c0-4.317,1.884-6.986,4.215-7.9s5.58-.261,8.719,3.1L18.041,6.43c-3.549-3.8-7.726-4.994-11.16-3.649S1.25,7.812,1.25,12.755ZM22.445,28.574a45.353,45.353,0,0,0,6.988-6.907C31.524,19,33.2,15.9,33.2,12.755H30.975c0,2.395-1.307,5-3.3,7.537a43.156,43.156,0,0,1-6.638,6.551ZM33.2,12.755c0-4.942-2.2-8.632-5.632-9.974s-7.611-.147-11.16,3.649l1.628,1.523c3.139-3.357,6.393-4.007,8.719-3.1s4.215,3.581,4.215,7.9Zm-21.2,15.819c1.89,1.534,3.2,2.659,5.218,2.659V29c-1.074,0-1.744-.481-3.813-2.161Zm9.031-1.731C18.971,28.522,18.3,29,17.227,29v2.229c2.018,0,3.328-1.125,5.218-2.659Zm-15.8-8.755a10.571,10.571,0,0,1-1.761-5.333H1.25a12.757,12.757,0,0,0,2.083,6.487Zm8.173,8.755a50.346,50.346,0,0,1-4.306-3.9L7.511,24.5a52.54,52.54,0,0,0,4.5,4.078Z" transform="translate(-1.25 -2.248)" fill="#fff"/>
    </g>
  </g>
</svg>
