<svg xmlns="http://www.w3.org/2000/svg" width="1087.407" height="377.257" viewBox="0 0 1087.407 377.257">
  <g id="crvs" transform="translate(-832.593 8.154)" opacity="0.075">
    <path id="crv" d="M90.922,0c13.812,33.224,25.176,67.643,31.515,103.167a355.216,355.216,0,0,1,5.725,53.736c.417,18.018-.534,36.158-4.048,53.9-.928,4.424-1.8,8.858-3.074,13.2-1.069,4.4-2.594,8.659-4.021,12.954a137.3,137.3,0,0,1-11.711,24.474,93.634,93.634,0,0,1-17.536,20.746A68.647,68.647,0,0,1,64.2,295.719a65.651,65.651,0,0,1-27.057,2.914c-9.08-.831-18.2-3.993-25.2-10.124A36.339,36.339,0,0,1,.131,264.191a42.394,42.394,0,0,1,1.22-13.669,47.436,47.436,0,0,1,5.128-12.7,54.524,54.524,0,0,1,8.175-10.946,64.963,64.963,0,0,1,10.364-8.872,84.353,84.353,0,0,1,24.651-11.337,118.2,118.2,0,0,1,53.8-2.01c17.807,3.432,34.575,10.937,49.922,20.368,15.392,9.449,29.532,20.739,43.112,32.554,27.166,23.623,52.319,49.625,81.5,70.733,14.565,10.463,30.288,19.612,47.411,25.031a106.082,106.082,0,0,0,53.039,3.208c17.6-3.439,34.229-10.885,49.437-20.334A249.478,249.478,0,0,0,449.936,320.8c7.011-5.605,13.884-11.389,20.449-17.517,26.462-24.341,49.066-52.55,75.1-77.568a282.4,282.4,0,0,1,42.066-34.048,227.048,227.048,0,0,1,23.788-13.04l12.528-5.232c4.254-1.53,8.6-2.825,12.888-4.247a224.7,224.7,0,0,1,53.408-8.759l13.565-.145c4.516.154,9.028.516,13.542.765l3.384.206c1.125.113,2.244.288,3.364.43l6.723.894c2.241.308,4.487.573,6.721.919l6.642,1.376c35.465,6.9,69.373,23.1,96.009,47.737,13.209,12.4,24.54,26.586,35.128,41.159,10.6,14.588,20.508,29.624,31.078,44.167,10.561,14.525,21.832,28.615,34.965,40.855a148.555,148.555,0,0,0,44.733,29.3,114.759,114.759,0,0,0,52.672,7.971,90.44,90.44,0,0,0,26.1-6.185,69.2,69.2,0,0,0,22.457-14.579l.161.161a69.577,69.577,0,0,1-22.439,14.853,91.015,91.015,0,0,1-26.208,6.459A114.278,114.278,0,0,1,985.6,369.1a149.819,149.819,0,0,1-45.249-29.328c-13.291-12.27-24.692-26.385-35.35-40.9-10.669-14.531-20.653-29.525-31.288-44.013s-21.95-28.5-35.069-40.7a192.814,192.814,0,0,0-44.206-30.089A203.6,203.6,0,0,0,743.668,167l-6.576-1.37c-2.212-.344-4.437-.607-6.653-.915l-6.66-.89c-1.109-.14-2.216-.317-3.33-.428l-3.353-.206c-4.471-.249-8.94-.611-13.413-.767l-13.434.136a222.574,222.574,0,0,0-52.881,8.634c-4.247,1.406-8.544,2.683-12.754,4.193l-12.39,5.166a224.074,224.074,0,0,0-23.533,12.881,279.872,279.872,0,0,0-41.772,33.77c-25.885,24.909-48.652,53.026-75.358,77.357-6.622,6.126-13.556,11.91-20.633,17.511a250.525,250.525,0,0,1-22.256,15.414c-15.36,9.445-32.176,16.89-49.983,20.282a107.223,107.223,0,0,1-53.594-3.409c-17.257-5.526-33.031-14.781-47.611-25.325-14.6-10.588-28.16-22.5-41.469-34.621-13.3-12.139-26.462-24.418-40.072-36.185-13.61-11.742-27.761-22.942-43.112-32.28-15.31-9.32-31.979-16.689-49.605-20.01a116.982,116.982,0,0,0-53.141,2.187,82.808,82.808,0,0,0-24.146,11.208,63.266,63.266,0,0,0-10.074,8.686,52.7,52.7,0,0,0-7.894,10.654,45.558,45.558,0,0,0-4.9,12.265A40.665,40.665,0,0,0,1.94,264.046a34.474,34.474,0,0,0,11.274,23.028c6.649,5.768,15.34,8.779,24.121,9.549A64.705,64.705,0,0,0,63.6,293.858a66.782,66.782,0,0,0,22.964-13.092,91.96,91.96,0,0,0,17.259-20.27,135.491,135.491,0,0,0,11.641-24.108c1.426-4.242,2.954-8.455,4.03-12.809,1.281-4.3,2.16-8.7,3.1-13.078,3.554-17.588,4.568-35.628,4.22-53.564a353.8,353.8,0,0,0-5.506-53.567,463.6,463.6,0,0,0-12.528-52.437C103.561,33.717,97.46,16.773,90.714.086Z" transform="translate(832.593 -8.154)" fill="#fff"/>
  </g>
</svg>
