<svg xmlns="http://www.w3.org/2000/svg" width="99" height="99" viewBox="0 0 99 99">
  <g id="Group_5460" data-name="Group 5460" transform="translate(-2.486 -0.015)">
    <circle id="Ellipse_2" data-name="Ellipse 2" cx="49.5" cy="49.5" r="49.5" transform="translate(2.486 0.015)" fill="#fff"/>
    <circle id="Ellipse_3" data-name="Ellipse 3" cx="38.5" cy="38.5" r="38.5" transform="translate(13.486 11.015)" fill="#082712"/>
    <g id="gear-11-svgrepo-com" transform="translate(34.396 31.479)">
      <path id="Path_14607" data-name="Path 14607" d="M271.565,269.874a4.957,4.957,0,1,0,3.507,1.452A4.922,4.922,0,0,0,271.565,269.874Zm2.907,7.865a4.112,4.112,0,1,1,1.2-2.907A4.085,4.085,0,0,1,274.472,277.739Z" transform="translate(-247.083 -249.892)" fill="#fff"/>
      <path id="Path_14608" data-name="Path 14608" d="M188.619,178.8l-2.643-.383a.439.439,0,0,1-.372-.271l-.856-2.067a.436.436,0,0,1,.071-.454l1.58-2.124a.742.742,0,0,0-.039-1.007l-1.251-1.251a.741.741,0,0,0-1.007-.039l-2.125,1.581a.439.439,0,0,1-.453.072L179.457,172a.441.441,0,0,1-.271-.372l-.384-2.643a.741.741,0,0,0-.739-.685h-1.769a.742.742,0,0,0-.74.685l-.384,2.643a.44.44,0,0,1-.27.372l-2.068.857a.448.448,0,0,1-.169.034.44.44,0,0,1-.285-.105l-2.123-1.58a.74.74,0,0,0-1.007.039L168,172.5a.743.743,0,0,0-.039,1.007l1.58,2.124a.44.44,0,0,1,.072.454l-.857,2.068a.436.436,0,0,1-.371.27l-2.644.384a.743.743,0,0,0-.684.74v1.768a.742.742,0,0,0,.684.741l2.644.383a.439.439,0,0,1,.371.271l.857,2.068a.439.439,0,0,1-.072.454l-1.58,2.124a.742.742,0,0,0,.039,1.006l1.251,1.251a.742.742,0,0,0,1.007.039l2.123-1.581a.439.439,0,0,1,.285-.1.435.435,0,0,1,.169.034l2.068.857a.439.439,0,0,1,.271.372l.384,2.643a.742.742,0,0,0,.74.684h1.769a.742.742,0,0,0,.739-.684l.383-2.643a.441.441,0,0,1,.271-.372l2.068-.857a.441.441,0,0,1,.454.071l2.124,1.581a.741.741,0,0,0,1.006-.039l1.251-1.251a.74.74,0,0,0,.039-1.006l-1.58-2.124a.44.44,0,0,1-.071-.454l.856-2.068a.442.442,0,0,1,.372-.271l2.643-.383a.742.742,0,0,0,.684-.739v-1.769A.744.744,0,0,0,188.619,178.8Zm-.164,2.416-2.581.374a1.288,1.288,0,0,0-1.054.789l-.856,2.065a1.282,1.282,0,0,0,.186,1.3l1.544,2.074-1.119,1.119L182.5,187.4a1.288,1.288,0,0,0-.809-.286,1.268,1.268,0,0,0-.493.1l-2.07.857a1.285,1.285,0,0,0-.787,1.053l-.374,2.581h-1.582l-.375-2.58a1.285,1.285,0,0,0-.788-1.055l-2.066-.855a1.269,1.269,0,0,0-.5-.1,1.292,1.292,0,0,0-.807.285l-2.075,1.544-1.118-1.119,1.543-2.075a1.279,1.279,0,0,0,.187-1.3l-.855-2.064a1.281,1.281,0,0,0-1.054-.793l-2.582-.374v-1.583l2.581-.374a1.274,1.274,0,0,0,1.053-.788l.856-2.065a1.279,1.279,0,0,0-.186-1.3l-1.544-2.075,1.119-1.119,2.073,1.544a1.287,1.287,0,0,0,1.3.188l2.068-.857a1.28,1.28,0,0,0,.788-1.055l.375-2.58h1.582l.374,2.581a1.283,1.283,0,0,0,.788,1.053l2.068.857a1.287,1.287,0,0,0,1.3-.188l2.074-1.544,1.119,1.119-1.542,2.073a1.275,1.275,0,0,0-.188,1.3l.856,2.068a1.284,1.284,0,0,0,1.055.788l2.58.374v1.583Z" transform="translate(-152.697 -155.487)" fill="#fff"/>
      <path id="Path_14609" data-name="Path 14609" d="M15.071,18.374l1.3-.476a.582.582,0,0,0,.361-.7l-.428-2.05a.347.347,0,0,1,.1-.348L17.7,13.611a.343.343,0,0,1,.232-.09.358.358,0,0,1,.121.021l1.99.594a.574.574,0,0,0,.206.037.583.583,0,0,0,.526-.336l.584-1.258a.58.58,0,0,0-.241-.753l-1.735-1.139a.343.343,0,0,1-.174-.316l.075-1.754a.346.346,0,0,1,.2-.3l1.844-.993a.581.581,0,0,0,.306-.729l-.475-1.3a.582.582,0,0,0-.7-.361l-2.05.427a.329.329,0,0,1-.092.013.346.346,0,0,1-.255-.112L16.873,3.969a.34.34,0,0,1-.07-.353l.594-1.99a.581.581,0,0,0-.3-.731L15.839.31a.591.591,0,0,0-.247-.055.583.583,0,0,0-.5.3l-1.14,1.735a.347.347,0,0,1-.3.175h-.015l-1.754-.076a.348.348,0,0,1-.3-.2L10.587.341A.583.583,0,0,0,9.858.035l-1.3.476a.58.58,0,0,0-.361.7l.427,2.05a.344.344,0,0,1-.1.346L7.229,4.8A.347.347,0,0,1,7,4.888a.342.342,0,0,1-.122-.023L4.886,4.273a.574.574,0,0,0-.206-.038.584.584,0,0,0-.525.336L3.571,5.83a.581.581,0,0,0,.241.753l1.735,1.14a.339.339,0,0,1,.174.313L5.646,9.79a.347.347,0,0,1-.2.3L3.6,11.082a.581.581,0,0,0-.305.728l.475,1.3a.575.575,0,0,0,.7.361l2.051-.427a.339.339,0,0,1,.09-.013.347.347,0,0,1,.256.112L8.056,14.44a.344.344,0,0,1,.07.354l-.594,1.989a.583.583,0,0,0,.3.732L9.09,18.1a.6.6,0,0,0,.248.055.581.581,0,0,0,.5-.3l1.14-1.735a.341.341,0,0,1,.3-.175H11.3l1.754.075a.345.345,0,0,1,.3.2l.993,1.844a.584.584,0,0,0,.533.341A.6.6,0,0,0,15.071,18.374Zm-.965-2.535a1.184,1.184,0,0,0-1.02-.663L11.339,15.1l-.065,0a1.2,1.2,0,0,0-1.012.572L9.238,17.232l-.838-.39.534-1.787a1.185,1.185,0,0,0-.252-1.189L7.5,12.575a1.191,1.191,0,0,0-.886-.388,1.141,1.141,0,0,0-.278.034l-1.845.384-.316-.868,1.659-.893a1.187,1.187,0,0,0,.662-1.019l.075-1.75A1.185,1.185,0,0,0,6,7L4.436,5.978l.389-.838,1.789.534A1.194,1.194,0,0,0,7.8,5.421L9.092,4.238a1.183,1.183,0,0,0,.355-1.167L9.064,1.228,9.931.911l.892,1.659a1.189,1.189,0,0,0,1.019.663l1.756.076h.053a1.2,1.2,0,0,0,1.015-.573l1.025-1.561.838.39L16,3.351a1.179,1.179,0,0,0,.251,1.19l1.187,1.293a1.189,1.189,0,0,0,.883.387,1.273,1.273,0,0,0,.282-.034L20.442,5.8l.316.868-1.66.894a1.194,1.194,0,0,0-.661,1.017l-.075,1.748a1.188,1.188,0,0,0,.573,1.076l1.558,1.024-.389.839-1.788-.535a1.2,1.2,0,0,0-1.188.251l-1.294,1.188a1.192,1.192,0,0,0-.351,1.163l.385,1.844L15,17.5Z" transform="translate(-3.26 0)" fill="#fff"/>
      <path id="Path_14610" data-name="Path 14610" d="M83.745,78.508a4.066,4.066,0,1,0-3.677,2.355,4.1,4.1,0,0,0,1.381-.249A4.054,4.054,0,0,0,83.745,78.508Zm-2.587,1.31a3.222,3.222,0,1,1,1.818-1.668A3.217,3.217,0,0,1,81.158,79.818Z" transform="translate(-70.848 -67.586)" fill="#fff"/>
    </g>
  </g>
</svg>
