<svg xmlns="http://www.w3.org/2000/svg" width="98" height="99" viewBox="0 0 98 99">
  <g id="Group_5458" data-name="Group 5458" transform="translate(-0.494 0.058)">
    <ellipse id="Ellipse_2" data-name="Ellipse 2" cx="49" cy="49.5" rx="49" ry="49.5" transform="translate(0.494 -0.058)" fill="#fff"/>
    <circle id="Ellipse_3" data-name="Ellipse 3" cx="38.5" cy="38.5" r="38.5" transform="translate(10.494 10.942)" fill="#cc4b50"/>
    <g id="media-svgrepo-com" transform="translate(33.85 34.746)">
      <path id="Path_14595" data-name="Path 14595" d="M96.735,99.443a2.719,2.719,0,0,0,2.709-2.709V75.743a2.719,2.719,0,0,0-2.709-2.709H75.743a2.719,2.719,0,0,0-2.709,2.709V96.735a2.719,2.719,0,0,0,2.709,2.709Zm0,1.354H75.743a4.073,4.073,0,0,1-4.063-4.063V75.743a4.073,4.073,0,0,1,4.063-4.063H96.735a4.073,4.073,0,0,1,4.063,4.063V96.735A4.073,4.073,0,0,1,96.735,100.8Z" transform="translate(-71.68 -71.68)" fill="#fff" stroke="#fff" stroke-width="0.5"/>
      <path id="Path_14596" data-name="Path 14596" d="M382.078,323.738a.339.339,0,0,0-.52.286v9.289a.339.339,0,0,0,.52.286l7.329-4.644a.339.339,0,0,0,0-.572Zm8.053,3.5a1.693,1.693,0,0,1,0,2.86l-7.328,4.644a1.693,1.693,0,0,1-2.6-1.43v-9.289a1.693,1.693,0,0,1,2.6-1.43Z" transform="translate(-370.003 -314.041)" fill="#fff" stroke="#fff" stroke-width="0.5"/>
    </g>
  </g>
</svg>
