<svg id="Group_5420" data-name="Group 5420" xmlns="http://www.w3.org/2000/svg" xmlns:xlink="http://www.w3.org/1999/xlink" width="125.273" height="31.56" viewBox="0 0 125.273 31.56">
  <defs>
    <clipPath id="clip-path">
      <rect id="Rectangle_2431" data-name="Rectangle 2431" width="125.273" height="31.56" fill="none"/>
    </clipPath>
  </defs>
  <g id="Group_5419" data-name="Group 5419" clip-path="url(#clip-path)">
    <path id="Path_14720" data-name="Path 14720" d="M0,31c1.047-1.468,2.031-2.85,3.017-4.23,1.629-2.279,3.271-4.549,4.874-6.846a1.974,1.974,0,0,0,.266-1.07q.024-8.515,0-17.029c0-.682.166-.894.869-.884,2.778.04,5.556.017,8.335.017h.784c.016.339.042.615.042.891,0,5.581-.01,11.161.022,16.742a2.709,2.709,0,0,0,.461,1.439c2.372,3.425,4.785,6.821,7.184,10.228.15.213.282.438.477.742ZM12.413,20.664c-.455.651-.906,1.32-1.385,1.97a1.827,1.827,0,0,1-.646.643c-1.209.5-1.455,1.534-1.576,2.656-.048.451.225.573.614.6a12.1,12.1,0,0,1,1.567.154,3.106,3.106,0,0,1,.784.4,5.733,5.733,0,0,0-.578.542c-.2.241-.5.524-.487.777a1.1,1.1,0,0,0,.5.832,4.2,4.2,0,0,0,3.47.088c.674-.314.74-.653.278-1.227-.235-.292-.495-.563-.743-.844l.014-.251c.732-.1,1.461-.219,2.2-.287.493-.046,1.095-.039,1.059-.676-.047-.837.315-1.765-.392-2.5-.027-.028-.1-.012-.137-.033a2.658,2.658,0,0,1-1.022-2.969,1.272,1.272,0,0,0,.033-.691,15.157,15.157,0,0,1-.4-1.848c-.128-2.124-.191-4.251-.269-6.377-.006-.158.009-.4.106-.464.509-.346.389-.832.334-1.3-.119-1-.293-1.988-.38-2.987-.082-.937-.313-1.662-1.426-1.788-.5-.057-.756-.392-.442-.929a2.088,2.088,0,0,0,.214-.531.828.828,0,0,0-.887-1.121c-.676.009-1.053.84-.748,1.649.332.88.216,1.075-.655,1.455-.282.123-.657.429-.68.68a10.273,10.273,0,0,0,.117,4.336c.147.437.467.817.6,1.256a25.861,25.861,0,0,1,1.1,6.563,1,1,0,0,1-.241.668c-.752.784-.764.793.1,1.552" transform="translate(0 -0.802)" fill="#fff"/>
    <path id="Path_14721" data-name="Path 14721" d="M505.582,2.322c1.259,0,2.5-.025,3.735.027.179.007.41.354.5.589.693,1.734,1.356,3.479,2.03,5.22a2.007,2.007,0,0,0,.458.768V2.361h4V17.907c-1.313,0-2.6.019-3.886-.023-.168-.005-.4-.3-.477-.5-.663-1.8-1.3-3.6-1.942-5.406a1.409,1.409,0,0,0-.392-.634v6.51h-4.035Z" transform="translate(-432.89 -1.983)" fill="#fff"/>
    <path id="Path_14722" data-name="Path 14722" d="M226.451,8.136c0,1.316.018,2.633,0,3.949a3.662,3.662,0,0,1-2.617,3.655,7.627,7.627,0,0,1-6.9-.584,3.128,3.128,0,0,1-1.533-2.631c-.044-2.943-.05-5.887,0-8.829A3.374,3.374,0,0,1,217.054.971a8.1,8.1,0,0,1,7.691,0A3.516,3.516,0,0,1,226.427,3.9c.037,1.411.008,2.824.008,4.236h.015m-6.318,0c0,1.292-.006,2.583,0,3.875a2.964,2.964,0,0,0,.107,1.061.9.9,0,0,0,.637.507.924.924,0,0,0,.657-.489,2.4,2.4,0,0,0,.124-.986q.013-4.054,0-8.108a1.951,1.951,0,0,0-.113-.843c-.107-.213-.4-.476-.591-.466a.99.99,0,0,0-.694.45,1.968,1.968,0,0,0-.128.909c-.012,1.363-.005,2.726-.005,4.09" transform="translate(-184.398 0)" fill="#fff"/>
    <path id="Path_14723" data-name="Path 14723" d="M722.06,17.9,719.25,2.311h3.227c1.906,0,1.914,0,2.138,1.863.3,2.472.582,4.947.876,7.42a4.257,4.257,0,0,0,.2.91q.386-3.654.774-7.308c.084-.786.166-1.573.291-2.352.03-.188.223-.5.347-.5,1.572-.034,3.146-.023,4.809-.023-.244,1.558-.469,3.019-.7,4.478q-.835,5.25-1.674,10.5c-.048.3-.02.62-.5.616-2.3-.016-4.593-.007-6.971-.007" transform="translate(-615.838 -1.979)" fill="#fff"/>
    <path id="Path_14724" data-name="Path 14724" d="M591.487,10.408h4.6c0,.773,0,1.509,0,2.245,0,.536.172.961.8.974s.894-.362.976-.932a2.333,2.333,0,0,0-1.308-2.742c-1.092-.646-2.188-1.286-3.281-1.929A3.674,3.674,0,0,1,591.437,5.1c-.352-3.112.806-4.579,3.914-5a9.931,9.931,0,0,1,4.123.306c1.888.546,2.443,1.231,2.6,3.2.035.445.005.9.005,1.377h-4.5c0-.51.006-.982,0-1.454s-.13-.884-.711-.875a.856.856,0,0,0-.893.846,1.886,1.886,0,0,0,1.134,2.239c1.188.668,2.381,1.329,3.557,2.017a3.418,3.418,0,0,1,1.728,2.753,16.511,16.511,0,0,1,.027,2.649,2.461,2.461,0,0,1-1.368,2.145,8.223,8.223,0,0,1-7.849,0,2.609,2.609,0,0,1-1.458-2.018c-.131-.936-.171-1.885-.256-2.886" transform="translate(-506.349 -0.012)" fill="#fff"/>
    <path id="Path_14725" data-name="Path 14725" d="M437.009,2.311h6.247c1.827,0,1.827,0,1.827,1.834V5.4h-3.211v3c.722,0,1.455.047,2.179-.014.688-.058.88.211.823.851a13.1,13.1,0,0,0-.007,1.579c.012.371-.137.512-.507.5-.809-.016-1.618-.005-2.479-.005v3.429h3.468v3.107h-8.34Z" transform="translate(-374.177 -1.979)" fill="#fff"/>
    <path id="Path_14726" data-name="Path 14726" d="M821.15,5.31h-3.119v3.01h2.932v2.9h-2.939v3.471h3.445v3.083h-8.3c-.018-.242-.049-.471-.049-.7,0-4.693.007-9.387-.014-14.08,0-.577.132-.792.751-.782,2.2.035,4.406.013,6.609.016.211,0,.422.024.689.039Z" transform="translate(-696.196 -1.895)" fill="#fff"/>
    <path id="Path_14727" data-name="Path 14727" d="M313.842,5.325h-3.335V8.3h2.911V11.23h-1.438c-1.526,0-1.526,0-1.526,1.558q0,2.119,0,4.238c0,.233-.021.467-.034.741h-4.774c-.014-.244-.041-.5-.041-.749,0-4.669.01-9.338-.016-14.006,0-.624.151-.821.8-.81,2.25.04,4.5.035,6.751,0,.581-.008.749.181.718.738-.042.758-.01,1.519-.01,2.383" transform="translate(-261.65 -1.885)" fill="#fff"/>
    <path id="Path_14728" data-name="Path 14728" d="M376.407,5.693c0,.941-.021,1.776.021,2.608.007.138.282.364.446.376a18.477,18.477,0,0,0,1.939.014c.416-.015.623.1.6.56-.028.6-.025,1.2,0,1.8.018.443-.163.587-.592.573-.761-.024-1.524-.007-2.389-.007v6.532H371.6V2.649h8.17c0,.916.019,1.814-.023,2.709-.005.119-.317.313-.492.319-.905.032-1.812.015-2.845.015" transform="translate(-318.169 -2.268)" fill="#fff"/>
    <rect id="Rectangle_2428" data-name="Rectangle 2428" width="4.765" height="15.493" transform="translate(97.745 0.385)" fill="#fff"/>
    <path id="Path_14729" data-name="Path 14729" d="M215.531,143.539h4.484l.044-.176c-.272-.1-.544-.2-.814-.3-.895-.335-1.807-.631-2.678-1.019a2.143,2.143,0,0,1-1.268-2.218,2.239,2.239,0,0,1,1.376-2.233,12.013,12.013,0,0,1,5.437-.693,13.736,13.736,0,0,1,3.306.574c1.618.5,2.007,1.287,1.736,3.054h-5.065c-.016-.249-.026-.5-.051-.752-.035-.343.038-.81-.5-.772-.312.022-.776.14-.883.357a.723.723,0,0,0,.5,1.023c1.086.37,2.188.691,3.275,1.058a13.445,13.445,0,0,1,2,.773,2.584,2.584,0,0,1,.2,4.282,7.347,7.347,0,0,1-2.683.894,14.3,14.3,0,0,1-6.465-.411c-1.661-.535-2.277-1.618-1.952-3.443m11.287-3.331c.171-1.392-.039-1.81-1.225-2.324a10.5,10.5,0,0,0-4.941-.655,20.583,20.583,0,0,0-3.854.706c-.911.241-1.157,1.073-1.179,1.942a1.814,1.814,0,0,0,1.084,1.864c.742.33,1.5.618,2.269.891.946.338,1.911.625,2.856.965a1.147,1.147,0,0,1,.7,1.516c-.162.7-.733.652-1.258.657-.666.006-.932-.382-.951-1-.009-.281-.041-.56-.062-.833H215.8c-.089,1.568.336,2.258,1.745,2.725a13.315,13.315,0,0,0,5.826.478,11.6,11.6,0,0,0,2.76-.7,2.053,2.053,0,0,0,1.167-2.2,1.85,1.85,0,0,0-1.239-1.842c-.888-.35-1.809-.617-2.715-.922-.814-.274-1.636-.529-2.438-.837a1.047,1.047,0,0,1-.609-1.368c.153-.622.681-.663,1.208-.634.641.035.854.428.848,1.014a4.054,4.054,0,0,0,.072.56Zm-6.126,3.425c-.181,1.3-.04,1.775.567,1.822.419.032.894.083.971-.55.1-.8-.242-1.094-1.538-1.272" transform="translate(-184.343 -117.188)" fill="#fff"/>
    <path id="Path_14730" data-name="Path 14730" d="M507.089,138.288h5.794c0,.28,0,.533,0,.786,0,2.252,0,4.5.013,6.756,0,.375-.033.8.534.844.6.042.787-.265.784-.825-.011-2.228,0-4.456.006-6.684,0-.279,0-.558,0-.871h5.757v10.292c-1.865,0-3.7.01-5.541-.019-.158,0-.312-.267-.484-.425a7.106,7.106,0,0,1-4.818.428,2.263,2.263,0,0,1-2.036-2.533c-.033-2.559-.009-5.119-.009-7.749m.386.313a2.318,2.318,0,0,0-.07.334c0,2.3-.015,4.6,0,6.9a2.134,2.134,0,0,0,2.111,2.486,6.151,6.151,0,0,0,5.023-1v.963c1.492,0,2.95-.027,4.406.013.6.016.776-.173.77-.769-.028-2.731-.011-5.463-.014-8.194,0-.228-.029-.456-.045-.687h-5.1c0,.326,0,.606,0,.887-.009,2.156-.026,4.312-.025,6.468,0,.686-.3,1.014-.995,1-.709-.018-.916-.224-.964-1.033-.02-.335-.021-.671-.021-1.006,0-1.893,0-3.786,0-5.679,0-.288.111-.674-.4-.675-1.552,0-3.1,0-4.683,0" transform="translate(-434.173 -118.405)" fill="#fff"/>
    <path id="Path_14731" data-name="Path 14731" d="M782.462,147.763,779,138.092c1.76,0,3.4-.014,5.046.024.151,0,.369.322.428.531.412,1.451.79,2.911,1.18,4.368a1.562,1.562,0,0,0,.339.691c.075-.5.157-.991.223-1.488.16-1.211.3-2.424.483-3.632.027-.179.234-.47.363-.473,1.624-.032,3.249-.021,4.984-.021-.168.8-.312,1.517-.47,2.232-.489,2.222-1,4.438-1.467,6.664a2.923,2.923,0,0,1-2.769,2.583c-2.169.167-4.351.178-6.527.223-.136,0-.279-.272-.416-.421-.012-.013,0-.046,0-.07-.091-1.348-.091-1.345,1.239-1.428.232-.015.461-.062.827-.113m3.666-2.362-.14.023c-.068-.225-.143-.448-.2-.675-.516-1.918-1.022-3.838-1.556-5.751-.059-.211-.272-.537-.421-.541-1.4-.041-2.808-.025-4.311-.025.193.562.341,1.011.5,1.456.865,2.41,1.741,4.816,2.6,7.229.27.763.119.987-.626,1.051-.378.033-.756.052-1.118.076-.222,1.016-.158,1.232.406,1.23,1.723-.007,3.451.032,5.168-.086,2.287-.157,2.981-.784,3.49-2.984.576-2.494,1.1-5,1.642-7.5a2.615,2.615,0,0,0,0-.475c-1.26,0-2.477.03-3.692-.013-.617-.022-.871.135-.942.8-.221,2.067-.524,4.125-.8,6.186" transform="translate(-666.999 -118.235)" fill="#fff"/>
    <path id="Path_14732" data-name="Path 14732" d="M421.963,140.8c-1.689,0-3.338.013-4.987-.021-.15,0-.382-.286-.421-.471a6.092,6.092,0,0,1-.041-1.074.555.555,0,0,0-.631-.608c-.424-.006-.623.183-.623.6,0,1.7-.01,3.4,0,5.1a.7.7,0,0,0,.761.773c.535.008.78-.285.777-.809,0-.545,0-1.091,0-1.681h5.153a3.184,3.184,0,0,1-2.129,3.917,12.339,12.339,0,0,1-8.313.018,2.911,2.911,0,0,1-2.047-2.847c-.056-1.315-.044-2.635-.008-3.952A2.387,2.387,0,0,1,411,137.439a11.735,11.735,0,0,1,9.358-.021c1.3.554,1.819,1.766,1.607,3.384m-.365-.364a2.4,2.4,0,0,0-1.724-2.88,11.758,11.758,0,0,0-8.756.176,1.908,1.908,0,0,0-1.29,1.75c-.036,1.528-.048,3.061.037,4.586a2.363,2.363,0,0,0,1.631,2.09,11.524,11.524,0,0,0,5.934.592,9.8,9.8,0,0,0,2.853-.874,2.467,2.467,0,0,0,1.349-2.9h-4.5c0,.489.031.919-.006,1.343-.07.8-.371,1.09-1.049,1.1a1.022,1.022,0,0,1-1.153-1.093c-.034-1.723-.021-3.448,0-5.172a.815.815,0,0,1,.9-.891.876.876,0,0,1,1.017.864c.038.423.043.85.064,1.31Z" transform="translate(-350.558 -116.836)" fill="#fff"/>
    <path id="Path_14733" data-name="Path 14733" d="M322.387,142.311h-7.045c0,.847-.041,1.631.03,2.405.017.182.4.441.633.467.376.042.792-.06.822-.585.036-.618.059-1.236.09-1.905h5.375a2.971,2.971,0,0,1-1.565,3.7,8.869,8.869,0,0,1-4.741.9,18,18,0,0,1-3.349-.364c-2.413-.545-3.23-1.66-3.165-3.823.025-.838,0-1.677.006-2.516.022-1.887.655-2.883,2.463-3.414a12.728,12.728,0,0,1,8.387.231,3.1,3.1,0,0,1,2.055,3.007c.024.6,0,1.192,0,1.9m-7.394-.384h7.049c0-.621.028-1.147-.005-1.668a2.794,2.794,0,0,0-2.056-2.664,12.744,12.744,0,0,0-8.32.023,2.555,2.555,0,0,0-1.817,2.5c-.036,1.053-.037,2.108-.025,3.162a2.957,2.957,0,0,0,2.53,3.247,14.049,14.049,0,0,0,6.338.2,6.787,6.787,0,0,0,2.071-.75,2.431,2.431,0,0,0,1.211-2.973h-4.721c-.035.6-.035,1.152-.1,1.694-.092.708-.631.816-1.225.829a.807.807,0,0,1-.917-.87c-.029-.878-.008-1.758-.008-2.732" transform="translate(-264.974 -116.937)" fill="#fff"/>
    <path id="Path_14734" data-name="Path 14734" d="M616.289,147.511h-5.745V137.258h5.7v.784a5.376,5.376,0,0,1,3.239-.958v3.758c-.61.058-1.2.086-1.784.175-1.144.176-1.368.426-1.393,1.6-.028,1.34-.014,2.681-.018,4.022,0,.261,0,.523,0,.871m-5.449-.344h5.142c0-1.6-.025-3.13.008-4.659.027-1.245.481-1.707,1.717-1.865.469-.06.941-.09,1.427-.136V137.3a12.01,12.01,0,0,0-1.843.578,12.19,12.19,0,0,0-1.57,1.1l.147-1.377H610.84Z" transform="translate(-522.761 -117.363)" fill="#fff"/>
    <path id="Path_14735" data-name="Path 14735" d="M718.354,130.695l1.073-.084.087-1.474h5.742c.021.452.043.918.069,1.466l1.406.1v1.831l-1.437.065c0,.668,0,1.3,0,1.94,0,1.1.027,2.2-.008,3.3-.021.686.2,1.041.933.97a5.264,5.264,0,0,1,.744.035v1.906c-1.984-.068-3.968.239-5.911-.282-1.188-.318-1.516-.773-1.547-2-.039-1.578-.026-3.157-.032-4.736,0-1.1,0-1.1-1.12-1.225Zm6.657.268c-.028-.507-.056-1.01-.083-1.5h-5.15v1.449c-1.286.217-1.286.217-1.05,1.294l1.069.105c0,.306,0,.566,0,.825,0,1.747-.007,3.494.018,5.24.016,1.109.36,1.67,1.448,1.807,1.763.222,3.552.247,5.36.358v-1.365c-.2-.012-.344-.025-.486-.029-1.012-.033-1.148-.16-1.162-1.185-.014-.981,0-1.962-.006-2.943,0-.9,0-1.8,0-2.725l1.432-.084v-1.171l-1.39-.076" transform="translate(-615.071 -110.57)" fill="#fff"/>
    <path id="Path_14736" data-name="Path 14736" d="M683.562,148.627c-1.575,0-3.1.008-4.629-.016-.112,0-.317-.233-.318-.358-.018-3.253-.014-6.507-.014-9.811h4.96Zm-.319-9.812h-4.267v9.462h4.267Z" transform="translate(-581.034 -118.537)" fill="#fff"/>
    <path id="Path_14737" data-name="Path 14737" d="M683.463,124.867c-1.533,0-3.033.012-4.531-.019-.141,0-.376-.26-.4-.42a12.812,12.812,0,0,1-.019-1.478h4.946Zm-4.583-.386h4.266v-1.148H678.88Z" transform="translate(-580.951 -105.272)" fill="#fff"/>
    <path id="Path_14747" data-name="Path 14747" d="M90.045,83.353a3.47,3.47,0,0,1,.2.549,37.717,37.717,0,0,1,.45,8.188.607.607,0,0,1-.042.28,6.146,6.146,0,0,1-.412.485,2.534,2.534,0,0,1-.264-.527.927.927,0,0,1,.041-.494c.224-.655.437-1.29-.625-1.436A2.38,2.38,0,0,0,90,90.124a.825.825,0,0,0,.326-.539c-.069-1.23-.208-2.456-.276-3.685-.045-.8-.008-1.6-.008-2.546" transform="translate(-76.536 -71.369)" fill="#fff"/>
    <path id="Path_14748" data-name="Path 14748" d="M349.479,151.537h-1.907c-.008-.722-.269-1.488.286-2.037a1.228,1.228,0,0,1,1.176-.051c.733.5.372,1.316.446,2.088m-.248-.324a8.608,8.608,0,0,0-.366-1.471,1.073,1.073,0,0,0-.766.009,8.766,8.766,0,0,0-.277,1.462Z" transform="translate(-297.54 -127.854)" fill="#fff"/>
  </g>
</svg>
