<svg xmlns="http://www.w3.org/2000/svg" width="124" height="124" viewBox="0 0 124 124">
  <g id="Group_5462" data-name="Group 5462" transform="translate(-9.897 0.058)">
    <circle id="Ellipse_2" data-name="Ellipse 2" cx="62" cy="62" r="62" transform="translate(9.897 -0.058)" fill="#fff"/>
    <ellipse id="Ellipse_3" data-name="Ellipse 3" cx="48.5" cy="48" rx="48.5" ry="48" transform="translate(22.897 13.942)" fill="#489d93"/>
    <g id="laptop-minimalistic-svgrepo-com" transform="translate(52.645 44.691)">
      <path id="Path_14597" data-name="Path 14597" d="M3,14.443C3,9.048,3,6.351,4.676,4.676S9.048,3,14.443,3H25.885c5.394,0,8.091,0,9.767,1.676s1.676,4.373,1.676,9.767v9.535c0,3.6,0,5.394-1.117,6.511S33.3,31.606,29.7,31.606H10.628c-3.6,0-5.394,0-6.511-1.117S3,27.574,3,23.978Z" transform="translate(-1.093 -3)" fill="none" stroke="#fff" stroke-width="1.5"/>
      <path id="Path_14598" data-name="Path 14598" d="M40.142,21H2" transform="translate(-2 13.328)" fill="none" stroke="#fff" stroke-linecap="round" stroke-width="1.5"/>
      <path id="Path_14599" data-name="Path 14599" d="M20.443,15H9" transform="translate(4.35 7.885)" fill="none" stroke="#fff" stroke-linecap="round" stroke-width="1.5"/>
    </g>
  </g>
</svg>
