<svg xmlns="http://www.w3.org/2000/svg" xmlns:xlink="http://www.w3.org/1999/xlink" width="491.073" height="599.428" viewBox="0 0 491.073 599.428">
  <defs>
    <linearGradient id="linear-gradient" x1="0.5" x2="0.5" y2="1.101" gradientUnits="objectBoundingBox">
      <stop offset="0" stop-color="#082912"/>
      <stop offset="1" stop-color="#18d755"/>
    </linearGradient>
  </defs>
  <path id="Subtraction_5" data-name="Subtraction 5" d="M-11666.473,597.429a46.159,46.159,0,0,1-9.457-.941c-6.986-1.5-11.739-4.247-18.316-8.042-11.565-6.669-23.336-13.989-34.984-21.754-15.633-10.421-30.735-21.45-44.889-32.781h11.3a644.293,644.293,0,0,0,72.064,48.47l.026.015c6.467,3.73,10.368,5.98,16.27,7.249a39.092,39.092,0,0,0,7.985.782,39.06,39.06,0,0,0,7.982-.782c5.9-1.268,9.8-3.517,16.262-7.243l.028-.017a643.535,643.535,0,0,0,72.073-48.473h11.3c-14.16,11.337-29.263,22.366-44.889,32.783-11.651,7.767-23.422,15.085-34.984,21.752-6.578,3.8-11.33,6.537-18.314,8.042A46.207,46.207,0,0,1-11666.473,597.429Zm-237.271-458.517h-7.1a73.757,73.757,0,0,1,3.128-12.813,82.694,82.694,0,0,1,20.247-32.245c10.459-10.2,22.974-15.4,45.692-24.824l152.015-63.091.015-.006c6.817-2.826,10.93-4.532,16.189-5.373a45.017,45.017,0,0,1,7.083-.56,45.1,45.1,0,0,1,7.087.56c5.26.842,9.361,2.542,16.154,5.36l.009,0,152.05,63.1c22.72,9.428,35.234,14.622,45.7,24.825a82.719,82.719,0,0,1,20.246,32.245,73.631,73.631,0,0,1,3.128,12.811h-7.1a65.568,65.568,0,0,0-2.647-10.535,75.716,75.716,0,0,0-18.515-29.512c-9.491-9.258-21.558-14.266-43.463-23.358l-.027-.011-152.05-63.1c-6.322-2.623-10.137-4.207-14.584-4.917a38.15,38.15,0,0,0-5.983-.473,38.088,38.088,0,0,0-5.981.473c-4.442.71-8.052,2.207-14.6,4.925l-.006,0-.012,0-152.015,63.09-.012,0c-21.914,9.094-33.986,14.1-43.479,23.364a75.74,75.74,0,0,0-18.515,29.512,65.8,65.8,0,0,0-2.647,10.535Z" transform="translate(11912.01 0.999)" stroke="#020204" stroke-linecap="round" stroke-width="2" fill="url(#linear-gradient)"/>
</svg>
