<svg xmlns="http://www.w3.org/2000/svg" xmlns:xlink="http://www.w3.org/1999/xlink" width="396.313" height="132.79" viewBox="0 0 396.313 132.79">
  <defs>
    <linearGradient id="linear-gradient" x1="0.04" y1="0.361" x2="0.924" y2="0.5" gradientUnits="objectBoundingBox">
      <stop offset="0" stop-color="#304b5a"/>
      <stop offset="0.532" stop-color="#253843"/>
      <stop offset="1" stop-color="#304b5a"/>
    </linearGradient>
    <linearGradient id="linear-gradient-2" x1="0.5" x2="0.5" y2="1" gradientUnits="objectBoundingBox">
      <stop offset="0" stop-color="#fff"/>
      <stop offset="1" stop-color="gray"/>
    </linearGradient>
    <clipPath id="clip-path">
      <rect id="Rectangle_2435" data-name="Rectangle 2435" width="396.313" height="132.79" fill="url(#linear-gradient)"/>
    </clipPath>
  </defs>
  <g id="Group_5425" data-name="Group 5425" transform="translate(-746 -5803.297)">
    <path id="Path_14766" data-name="Path 14766" d="M12718.368,5791.092c-2.385,3.973-19.8,15.591,0,68.785s72.521,42.093,72.521,42.093,58.369,8.029,69.1-56.162c4.942-30.947,7.286-27.756-2.424-45.1S12766.155,5764.321,12718.368,5791.092Z" transform="translate(-11941.702 29.668)" opacity="0.367" fill="url(#linear-gradient-2)"/>
    <path id="Path_14767" data-name="Path 14767" d="M12854.919,5791.092c2.385,3.973,19.8,15.591,0,68.785s-72.521,42.093-72.521,42.093-58.369,8.029-69.1-56.162c-4.942-30.947-7.287-27.756,2.424-45.1S12807.132,5764.321,12854.919,5791.092Z" transform="translate(-11742.619 29.668)" opacity="0.373" fill="url(#linear-gradient-2)"/>
    <g id="Group_5424" data-name="Group 5424" transform="translate(746 5803.297)">
      <g id="Group_5423" data-name="Group 5423" clip-path="url(#clip-path)">
        <path id="Path_14765" data-name="Path 14765" d="M200.292,26.879c-5.063-.335-15.618.634-16.393.775-4.629.848-8.843.212-12.014-3.062-13.52-13.96-31.024-19.069-49.3-22.048A195.124,195.124,0,0,0,44.672,5.857c-10.3,2.5-20.219,6.563-30.333,9.846-3.2,1.038-6.593,1.562-9.659,2.877C2.972,19.314.8,21.023.521,22.587,0,25.553-.909,29.136,2.4,31.459c1.652,1.16,3.473,2.079,5.13,3.234a16.994,16.994,0,0,1,7.308,11.592c3.037,17.438,7.6,34.375,15.778,50.269C40.6,115.041,52.963,126.8,76.331,130.568c19.212,3.386,37.817,3.256,56.535-2.864,10.726-3.507,19.481-9.978,26.62-18.6a104.219,104.219,0,0,0,23.722-55.239,7.474,7.474,0,0,0-1.81-5.223c-3.908-4.308-3.1-9.334,2.534-10.953a56.336,56.336,0,0,1,15.1-2.584h.024a60.418,60.418,0,0,1,13.327,2.509c5.634,1.62,6.442,6.646,2.534,10.954a7.474,7.474,0,0,0-1.809,5.223,104.219,104.219,0,0,0,23.723,55.239c7.139,8.618,15.894,15.089,26.62,18.6,18.718,6.12,37.323,6.249,56.534,2.865,23.368-3.769,35.73-15.528,45.717-34.015,8.175-15.894,12.741-32.831,15.778-50.269a17,17,0,0,1,7.308-11.592c1.657-1.155,3.478-2.074,5.13-3.235,3.308-2.322,2.4-5.9,1.878-8.871-.275-1.566-2.45-3.275-4.159-4.007-3.065-1.315-6.461-1.84-9.658-2.877-10.115-3.283-20.032-7.35-30.333-9.846a195.142,195.142,0,0,0-77.913-3.312c-18.276,2.979-35.78,8.087-49.3,22.048-3.171,3.274-7.385,3.911-12.015,3.062-.717-.131-11.154-.78-12.115-.7M173.393,56.336a7.39,7.39,0,0,1-2.937,4.285,6.162,6.162,0,0,0-1.334,9.679c1.019,1.115,1.82,3.444,1.357,4.729-2.727,7.576-5.356,15.258-8.96,22.432-6.44,12.821-16.426,21.927-30.579,25.8a120.81,120.81,0,0,1-63.353-.076,45.373,45.373,0,0,1-23.42-16.532A98.4,98.4,0,0,1,24.2,45.153c.163-15.749,7.319-26.03,22.08-31.737,14.93-5.773,30.451-6.61,46.109-6.608,4.314,0,8.641-.22,12.939.039,16.806,1.011,33.222,3.766,48.394,11.613,15.269,7.9,23.157,22.953,19.67,37.876m178.755,50.237a45.377,45.377,0,0,1-23.42,16.532,120.813,120.813,0,0,1-63.353.075c-14.152-3.868-24.138-12.973-30.578-25.795-3.6-7.175-6.233-14.857-8.961-22.433-.463-1.285.339-3.614,1.358-4.728a6.163,6.163,0,0,0-1.334-9.68,7.383,7.383,0,0,1-2.938-4.284c-3.486-14.923,4.4-29.98,19.671-37.877,15.172-7.846,31.588-10.6,48.394-11.612,4.3-.259,8.625-.039,12.939-.039,15.658,0,31.18.835,46.109,6.607,14.762,5.708,21.918,15.988,22.08,31.737a98.4,98.4,0,0,1-19.966,61.5" transform="translate(0 0)" fill="url(#linear-gradient)"/>
      </g>
    </g>
  </g>
</svg>
