<svg xmlns="http://www.w3.org/2000/svg" width="48" height="48" viewBox="0 0 48 48">
  <g id="Group_5471" data-name="Group 5471" transform="translate(-240 -7167)">
    <g id="Rectangle_2439" data-name="Rectangle 2439" transform="translate(240 7167)" fill="none" stroke="#18d755" stroke-width="1">
      <rect width="48" height="48" rx="8" stroke="none"/>
      <rect x="0.5" y="0.5" width="47" height="47" rx="7.5" fill="none"/>
    </g>
    <g id="Page-1" transform="translate(254.017 7181.018)">
      <g id="Icon-Set" transform="translate(-0.016 -0.018)">
        <path id="cross" d="M484.912,1056.915a1.6,1.6,0,0,1-2.265,0l-5.664-5.664-5.664,5.664a1.6,1.6,0,0,1-2.265-2.272l5.664-5.664-5.664-5.664a1.6,1.6,0,0,1,2.265-2.264l5.664,5.664,5.664-5.664a1.6,1.6,0,0,1,2.265,2.264l-5.664,5.664,5.664,5.664a1.608,1.608,0,0,1,0,2.272Zm-3.4-7.936,4.532-4.528a3.2,3.2,0,0,0-4.532-4.528l-4.531,4.528-4.531-4.528a3.2,3.2,0,1,0-4.531,4.528l4.531,4.528-4.531,4.536a3.2,3.2,0,1,0,4.531,4.528l4.531-4.528,4.531,4.528a3.2,3.2,0,0,0,4.532-4.528l-4.532-4.536Z" transform="translate(-466.984 -1038.982)" fill="#18d755" fill-rule="evenodd"/>
      </g>
    </g>
  </g>
</svg>
