<svg xmlns="http://www.w3.org/2000/svg" width="48" height="48" viewBox="0 0 48 48">
  <g id="Group_5469" data-name="Group 5469" transform="translate(-240 -7023)">
    <g id="Rectangle_2439" data-name="Rectangle 2439" transform="translate(240 7023)" fill="none" stroke="#345381" stroke-width="1">
      <rect width="48" height="48" rx="8" stroke="none"/>
      <rect x="0.5" y="0.5" width="47" height="47" rx="7.5" fill="none"/>
    </g>
    <path id="laptop-shield-svgrepo-com" d="M13,4h4.8a4.969,4.969,0,0,1,2.108.218,2,2,0,0,1,.874.874A4.968,4.968,0,0,1,21,7.2V16M3,16V12M8.873,2.2q-.1.006-.206.006A3.655,3.655,0,0,1,6,1,3.655,3.655,0,0,1,3.333,2.21q-.1,0-.206-.006A5.608,5.608,0,0,0,3,3.4,4.681,4.681,0,0,0,6,8,4.681,4.681,0,0,0,9,3.4,5.609,5.609,0,0,0,8.873,2.2ZM2,16H22v.8a4.968,4.968,0,0,1-.218,2.108,2,2,0,0,1-.874.874A4.968,4.968,0,0,1,18.8,20H5.2a4.968,4.968,0,0,1-2.108-.218,2,2,0,0,1-.874-.874A4.969,4.969,0,0,1,2,16.8Z" transform="translate(252 7035.5)" fill="none" stroke="#345381" stroke-linecap="round" stroke-linejoin="round" stroke-width="1.5"/>
  </g>
</svg>
