<svg xmlns="http://www.w3.org/2000/svg" width="48" height="48" viewBox="0 0 48 48">
  <g id="Group_5470" data-name="Group 5470" transform="translate(-240 -7095)">
    <g id="Rectangle_2439" data-name="Rectangle 2439" transform="translate(240 7095)" fill="none" stroke="#18d755" stroke-width="1">
      <rect width="48" height="48" rx="8" stroke="none"/>
      <rect x="0.5" y="0.5" width="47" height="47" rx="7.5" fill="none"/>
    </g>
    <path id="profit-svgrepo-com" d="M22.281,16.1c-.035-.138-.071-.275-.11-.412a5.39,5.39,0,0,0-.321-.835,7.419,7.419,0,0,0-.934-1.385c-.317-.4-.728-.7-1.081-1.059-.176-.181-.345-.367-.526-.543-.028-.028-.06-.052-.09-.079,0-.007,0-.013,0-.021a.56.56,0,0,0-.018-.09.735.735,0,0,0,.05-.312c0,.008,0,.016,0,.025-.047-.565-.045-1.137-.069-1.7a.722.722,0,0,0-.312-.562,1.386,1.386,0,0,0,.066-.262c.021-.133.045-.263.073-.394.055-.27.121-.536.187-.8s.147-.518.232-.772c.057-.171.112-.342.156-.515a3.484,3.484,0,0,0,.088-.915,1.962,1.962,0,0,0-.074-.645.915.915,0,0,0-.247-.389c-.062-.052-.133-.1-.2-.153a1.592,1.592,0,0,0-.439-.216c-.18-.06-.368-.1-.551-.148-.071-.019-.143-.035-.215-.051,0-.109,0-.218-.01-.326-.009-.2-.036-.406-.064-.609a.934.934,0,0,0-.252-.49,1.022,1.022,0,0,0-.427-.244,2.169,2.169,0,0,0-.436-.135,3.144,3.144,0,0,0-.52-.04c-.162,0-.328.03-.49.044a10.233,10.233,0,0,1-1.043,0c-.167,0-.332-.012-.5-.017-.112,0-.223,0-.335,0-.074,0-.148,0-.222,0-.334,0-.669-.03-1-.047-.04,0-.079,0-.117,0a2.188,2.188,0,0,0-.417.04.907.907,0,0,0-.682.614,2.187,2.187,0,0,0-.057.593c0,.205.008.411.011.618,0,.225.009.452.012.678,0,.125,0,.251.006.377-.168.007-.336.016-.505.03-.24.019-.477.049-.715.082a1.344,1.344,0,0,0-.378.129.879.879,0,0,0-.294.3.812.812,0,0,0-.106.415,1.387,1.387,0,0,0,.041.279,5.227,5.227,0,0,0,.166.551,6.488,6.488,0,0,1,.157.653c.055.256.112.507.173.761.035.139.088.274.135.411a.658.658,0,0,0-.19.182.7.7,0,0,0-.151.1.8.8,0,0,0-.214.518c-.045.406-.064.811-.093,1.218a2.267,2.267,0,0,0,.082.733.712.712,0,0,0,.2.319c-.261.243-.514.5-.774.741a10.471,10.471,0,0,0-.726.8c-.284.329-.562.659-.813,1.015a5.285,5.285,0,0,0-.548,1.07c-.129.31-.249.624-.365.937a6.071,6.071,0,0,0-.263,1.075,6.278,6.278,0,0,0,.079,2.375,5.96,5.96,0,0,0,.192.634,7.9,7.9,0,0,0,.3.747c.087.2.192.387.293.575a3.845,3.845,0,0,0,.717.833c.323.327.631.662.975.969a4.3,4.3,0,0,0,.9.631c.244.126.5.23.752.335l-.183-.075a8.717,8.717,0,0,0,1.056.434,9.2,9.2,0,0,0,.97.188,9.035,9.035,0,0,0,1.165.128c.32.011.636.045.956.055A9.742,9.742,0,0,0,16.266,25c.293-.049.579-.114.868-.183a7.236,7.236,0,0,0,.953-.331,7.566,7.566,0,0,0,1.065-.5,4.977,4.977,0,0,0,.912-.7,6.014,6.014,0,0,0,1.424-1.706,7.957,7.957,0,0,0,.425-1.113,9.934,9.934,0,0,0,.287-1.048,6.317,6.317,0,0,0,.107-1.208c0-.18,0-.361.007-.54.007-.238.049-.476.069-.712A2.742,2.742,0,0,0,22.281,16.1ZM10.935,10.955a.621.621,0,0,0,0-.068c-.02-.068-.036-.137-.05-.206a4.5,4.5,0,0,1,.059-.963c.937-.034,1.875-.068,2.814-.072a26.27,26.27,0,0,1,3.16.126c-.055-.006-.11-.014-.166-.021a6.445,6.445,0,0,0,.724.064c.112,0,.225.012.337.019.018.269.036.537.054.807.013.181.025.363.037.545-.155.008-.309.012-.465.011-.09,0-.181,0-.271,0-.273,0-.543-.009-.816-.016-.608-.012-1.215,0-1.823-.016C13.328,11.132,12.132,11.037,10.935,10.955Zm7.329-5.542c0,.01,0,.02,0,.03,0-.01,0-.021,0-.03Zm-6.535.816c.087.016.175.032.265.044a.468.468,0,0,0,.211-.036.761.761,0,0,0,.415-.318,1.2,1.2,0,0,0,.157-.569c.017-.31-.008-.621-.008-.931,0-.257.009-.513.017-.769,0-.082,0-.163.007-.245.177.01.354.031.528.049.359.036.721.05,1.081.071s.74.029,1.111.016a7.661,7.661,0,0,1,.859-.01,1.419,1.419,0,0,1,.143.043l.01.061a3.731,3.731,0,0,1,.031.534,1.6,1.6,0,0,0,.021.378.883.883,0,0,0,.208.356.892.892,0,0,0,.378.216,3.192,3.192,0,0,0,.4.077,4.354,4.354,0,0,1,.588.157c.037.018.073.037.109.058a3.6,3.6,0,0,1,.012.6c-.082.449-.257.881-.356,1.328-.05.235-.1.468-.145.7-.034.17-.062.342-.111.508l-.011.016c-.12-.007-.241-.011-.362-.016-.3-.014-.6-.021-.907-.041-.643-.044-1.284-.042-1.927-.04s-1.27,0-1.9-.021c-.336-.007-.672-.012-1.007-.017-.087-.225-.175-.452-.239-.682-.071-.251-.138-.5-.205-.752s-.152-.493-.227-.74A4.622,4.622,0,0,1,11.729,6.229Zm-1.2,16.522,0,0,.179.075Zm10.286-5.673a8.052,8.052,0,0,0-.1.9c-.008.26-.018.518-.043.777a5.632,5.632,0,0,1-.236.921c-.1.277-.183.559-.288.831a5.525,5.525,0,0,1-.474.881,6.884,6.884,0,0,1-.55.6c-.193.188-.378.378-.584.55a5.03,5.03,0,0,1-.81.453,7.491,7.491,0,0,1-.8.282,6.517,6.517,0,0,1-.821.164,13.742,13.742,0,0,1-1.531.073c-.309,0-.612-.036-.92-.054s-.587-.017-.881-.049c-.367-.059-.734-.126-1.095-.217a3.557,3.557,0,0,1-.517-.2c-.214-.09-.429-.169-.647-.249a3.445,3.445,0,0,1-.583-.337,10.063,10.063,0,0,1-.753-.687c-.129-.128-.257-.258-.387-.386-.164-.159-.343-.3-.494-.469a5.975,5.975,0,0,1-.526-.934,6.359,6.359,0,0,1-.326-1.075,7.335,7.335,0,0,1-.021-1.339,7.657,7.657,0,0,1,.215-.96A9.647,9.647,0,0,1,8,15.64c.074-.169.15-.336.233-.5a3.231,3.231,0,0,1,.3-.467c.307-.381.637-.753.977-1.107.178-.185.368-.351.562-.518.227-.2.446-.4.669-.6a.55.55,0,0,0,.135-.194c.556.02,1.111.036,1.668.042.66.007,1.32.062,1.981.069l.892.011c.082,0,.166,0,.247,0a6.114,6.114,0,0,1,.684.024c.27.031.545.047.816.052.151,0,.3,0,.452,0h.233c.146.131.293.26.434.4.173.169.326.356.493.531.333.349.687.675.994,1.048.152.213.3.426.438.649a5.371,5.371,0,0,1,.331.687c-.016-.037-.031-.074-.046-.111l.047.113h0a4.816,4.816,0,0,1,.288.941A2.45,2.45,0,0,1,20.818,17.078Zm-.276-1.3v0s0,0,0,0Zm-4.33,2.666a1.658,1.658,0,0,1,.055.364,1.431,1.431,0,0,1-.274.86,2.293,2.293,0,0,1-.693.608,2.448,2.448,0,0,1-.676.266c-.024.144-.05.288-.073.433a.871.871,0,0,0,0,.161.648.648,0,0,1-.2.485.685.685,0,0,1-.971,0,.73.73,0,0,1-.2-.485,2.375,2.375,0,0,1,.031-.47c.007-.053.015-.105.022-.158a2.707,2.707,0,0,1-.433-.158c-.137-.064-.27-.135-.4-.209a.608.608,0,0,1-.218-.828.616.616,0,0,1,.828-.219c.08.04.16.079.241.115a2.307,2.307,0,0,0,.367.1,3.971,3.971,0,0,0,.551-.008,1.856,1.856,0,0,0,.25-.066,2.312,2.312,0,0,0,.276-.172c.06-.052.117-.106.171-.162.014-.022.027-.045.04-.068s0-.035,0-.054c-.01-.045-.021-.089-.035-.134a1.553,1.553,0,0,0-.081-.138c-.035-.04-.072-.077-.11-.114l-.049-.028a6.184,6.184,0,0,0-.982-.177c-.187-.026-.375-.061-.56-.1a1.751,1.751,0,0,1-.455-.143,1.185,1.185,0,0,1-.418-.353.956.956,0,0,1-.167-.329,1.39,1.39,0,0,1,.236-1.339,1.556,1.556,0,0,1,.288-.251,2.673,2.673,0,0,1,1-.414c-.012-.1-.021-.2-.034-.293s-.03-.2-.048-.293a.768.768,0,0,1,.073-.562.741.741,0,0,1,.436-.335.736.736,0,0,1,.562.074.69.69,0,0,1,.335.436c.048.3.077.6.1.9.2.022.394.054.589.093a.714.714,0,0,1,.5.875.724.724,0,0,1-.878.5c-.2-.043-.391-.078-.589-.108a4.286,4.286,0,0,0-.734-.022,2.78,2.78,0,0,0-.406.106,2.046,2.046,0,0,0-.217.128l0,.017c0,.014,0,.028,0,.042l0,.012a7.318,7.318,0,0,0,1.089.218c.171.027.345.05.517.081a1.378,1.378,0,0,1,.743.359,2.075,2.075,0,0,1,.432.565A1.5,1.5,0,0,1,16.212,18.439Z" transform="translate(250.107 7105.942)" fill="#18d755"/>
  </g>
</svg>
